<svg width="43" height="43" viewBox="0 0 43 43" fill="none" xmlns="http://www.w3.org/2000/svg">
<path d="M21.4809 42.5C19.1956 42.5 16.9103 42.1063 14.7594 41.4503C12.6085 40.7942 10.592 39.8756 8.84442 38.5634C8.70999 38.4322 8.70999 38.1698 8.84442 38.0386C9.11328 37.7761 9.38215 37.5137 9.65101 37.2512C9.78544 37.12 10.0543 36.9888 10.1887 37.12C16.9103 41.8439 26.0516 41.8439 32.7731 37.12C32.9075 36.9888 33.1764 36.9888 33.3108 37.2512C33.4452 37.5137 33.7141 37.9073 33.983 38.0386C34.1174 38.1698 34.1174 38.4322 33.983 38.5634C30.3533 41.1878 26.0516 42.5 21.4809 42.5ZM21.4809 37.2512C20.9432 37.2512 20.4055 36.7264 20.5399 36.2015C20.5399 35.6766 20.9432 35.283 21.4809 35.283C22.0186 35.283 22.4219 35.8078 22.4219 36.3327C22.4219 36.8576 22.0186 37.2512 21.4809 37.2512ZM24.9761 36.8576C24.7073 36.8576 24.5728 36.7264 24.5728 36.4639C24.5728 36.0703 24.5728 35.8078 24.4384 35.4142C24.4384 35.1517 24.4384 35.0205 24.7072 34.8893C28.8746 33.9708 32.2354 31.2152 34.1174 27.541C37.6126 20.7177 34.6551 12.4509 27.6647 9.03916C26.7237 8.51429 25.6483 8.25185 24.5728 7.98941C24.304 7.98941 24.1695 7.72697 24.304 7.59575C24.4384 7.2021 24.4384 6.93966 24.4384 6.546C24.4384 6.28356 24.5728 6.15234 24.8417 6.15234C24.8417 6.15234 24.8417 6.15234 24.9761 6.15234C30.0845 7.2021 34.3863 10.6138 36.2683 15.3377C39.7635 23.342 35.865 32.5274 27.6647 35.9391C26.8581 36.3327 25.9171 36.7264 24.9761 36.8576ZM18.1201 36.8576C17.9857 36.8576 17.9857 36.8576 18.1201 36.8576C9.38215 34.8893 3.87049 26.4913 5.88695 18.0933C7.23125 12.1884 12.0708 7.46453 18.1201 6.15234C18.1201 6.15234 18.1201 6.15234 18.2546 6.15234C18.5234 6.15234 18.6579 6.28356 18.6579 6.546C18.6579 6.93966 18.6579 7.2021 18.7923 7.59575C18.7923 7.85819 18.7923 7.98941 18.5234 8.12063C10.8609 9.82648 6.15581 17.306 8.03784 24.7854C8.03784 25.704 8.44113 26.7537 8.84442 27.541C10.7265 31.2152 14.2217 33.8396 18.2546 34.8893C18.389 34.8893 18.389 35.0205 18.5234 35.0205C18.5234 35.1517 18.6579 35.283 18.5234 35.283C18.389 35.6766 18.389 35.9391 18.389 36.3327C18.389 36.4639 18.389 36.5951 18.2546 36.5951C18.2546 36.8576 18.1201 36.8576 18.1201 36.8576ZM35.9994 36.5951C35.4617 36.5951 34.924 36.2015 34.924 35.6766C34.924 35.4142 35.0584 35.1517 35.1928 35.0205C35.5961 34.6269 36.2683 34.6269 36.6716 35.0205C37.0749 35.4142 37.0749 36.0703 36.6716 36.3327C36.5372 36.5951 36.2683 36.5951 35.9994 36.5951ZM6.96239 36.5951C6.82796 36.5951 6.5591 36.5951 6.42467 36.4639C6.29024 36.3327 6.15581 36.3327 6.15581 36.2015C5.88695 35.6766 6.02138 35.1517 6.42467 34.8893C6.96239 34.6269 7.50012 34.7581 7.76898 35.1517C8.03784 35.5454 7.90341 36.2015 7.50012 36.4639C7.36568 36.5951 7.09682 36.5951 6.96239 36.5951ZM4.40821 33.9708C4.27378 33.9708 4.13935 33.9708 4.13935 33.8395C2.79504 32.1337 1.71959 30.1654 1.18187 28.0659C-1.10345 21.7674 -0.0280053 14.6816 4.00492 9.3016C4.13935 9.17038 4.13935 9.17038 4.27378 9.17038C4.40821 9.17038 4.54264 9.17038 4.54264 9.3016C4.8115 9.56404 5.21479 9.69526 5.48365 9.95769C5.61809 10.0889 5.75252 10.3514 5.61809 10.4826C0.778579 17.0435 0.778579 25.9664 5.61809 32.5274C5.61809 32.6586 5.75252 32.6586 5.75252 32.7898C5.75252 32.921 5.61809 32.921 5.61809 33.0522C5.34922 33.3147 5.08036 33.5771 4.8115 33.8395C4.54264 33.9708 4.40821 33.9708 4.40821 33.9708ZM38.688 33.9708C38.5536 33.9708 38.4192 33.9708 38.4192 33.8395C38.1503 33.5771 37.8815 33.3147 37.6126 33.1835C37.4782 33.0522 37.3437 32.7898 37.4782 32.6586C42.3177 26.0976 42.3177 17.1747 37.4782 10.6138C37.3437 10.4826 37.3437 10.2201 37.6126 10.0889C37.8815 9.82648 38.1503 9.56404 38.4192 9.3016C38.5536 9.17038 38.5536 9.17038 38.688 9.17038C38.8225 9.17038 38.9569 9.17038 38.9569 9.3016C40.3012 11.0074 41.3767 12.9757 41.9144 15.0752C44.0653 21.505 42.9898 28.4596 38.9569 33.8395C38.8225 33.8395 38.8225 33.9708 38.688 33.9708ZM21.4809 28.0659C17.7169 28.0659 14.7594 25.1791 14.7594 21.505C14.7594 17.8308 17.7169 14.944 21.4809 14.944C25.245 14.944 28.2024 17.8308 28.2024 21.505C28.2024 25.1791 25.245 28.0659 21.4809 28.0659ZM6.96239 8.38307C6.42467 8.38307 5.88695 7.85819 5.88695 7.33331C5.88695 7.07088 6.02138 6.80844 6.15581 6.67722C6.5591 6.28356 7.23125 6.28356 7.63455 6.67722C8.03784 7.07088 8.03784 7.59575 7.76898 7.98941C7.50012 8.25185 7.23125 8.38307 6.96239 8.38307ZM35.9994 8.38307C35.865 8.38307 35.5961 8.38307 35.4617 8.25185L35.3273 8.12063L35.1928 7.98941C34.924 7.59575 35.0584 6.93966 35.4617 6.67722C35.5961 6.546 35.865 6.546 35.9994 6.546C36.4027 6.546 36.806 6.80844 36.9404 7.33331C37.0749 7.72697 36.9404 7.98941 36.6716 8.25185C36.5372 8.25185 36.2683 8.38307 35.9994 8.38307ZM21.4809 7.72697C20.9432 7.72697 20.4055 7.33332 20.4055 6.80844C20.4055 6.28356 20.9432 5.75869 21.4809 5.75869C22.0186 5.75869 22.5564 6.15234 22.5564 6.80844C22.5564 7.46453 22.0186 7.72697 21.4809 7.72697ZM33.042 6.02112C32.9075 6.02112 32.9075 6.02113 32.7731 5.88991C26.0516 1.16602 16.9103 1.16602 10.1887 5.88991C10.0543 5.88991 10.0543 6.02112 9.91987 6.02112C9.91987 6.02112 9.91987 6.02112 9.78544 6.02112C9.65101 6.02112 9.51658 5.88991 9.51658 5.88991C9.38215 5.62747 9.24771 5.23381 8.84442 5.10259C8.84442 4.97137 8.70999 4.84015 8.70999 4.70894C8.70999 4.57772 8.70999 4.4465 8.84442 4.4465C14.4905 0.509928 21.6153 -0.539824 28.068 1.55968C30.3533 2.21578 32.3698 3.13431 34.1174 4.4465C34.2518 4.57772 34.2518 4.84015 34.1174 4.97137C33.8485 5.23381 33.5797 5.49625 33.3108 5.75869C33.3108 6.02113 33.1764 6.02112 33.042 6.02112Z" fill="url(#paint0_linear_1524_4)"/>
<defs>
<linearGradient id="paint0_linear_1524_4" x1="21.4203" y1="0.527391" x2="21.4203" y2="42.516" gradientUnits="userSpaceOnUse">
<stop stop-color="#F4CC3A"/>
<stop offset="0.537" stop-color="#F26419"/>
<stop offset="1" stop-color="#E84855"/>
</linearGradient>
</defs>
</svg>
