<svg width="32" height="33" viewBox="0 0 32 33" fill="none" xmlns="http://www.w3.org/2000/svg">
<path d="M16 0.970581C13.8989 0.970581 11.8183 1.38223 9.87706 2.18204C7.93586 2.98184 6.17203 4.15412 4.68629 5.63196C1.68571 8.6166 0 12.6646 0 16.8855C0 23.92 4.592 29.8881 10.944 32.0048C11.744 32.1321 12 31.6387 12 31.209V28.5194C7.568 29.4743 6.624 26.3868 6.624 26.3868C5.888 24.5406 4.848 24.0473 4.848 24.0473C3.392 23.0605 4.96 23.0924 4.96 23.0924C6.56 23.2038 7.408 24.7316 7.408 24.7316C8.8 27.1507 11.152 26.4345 12.064 26.0526C12.208 25.0181 12.624 24.3178 13.072 23.92C9.52 23.5221 5.792 22.1534 5.792 16.0898C5.792 14.3232 6.4 12.9068 7.44 11.7768C7.28 11.379 6.72 9.72381 7.6 7.57529C7.6 7.57529 8.944 7.14559 12 9.19862C13.264 8.84849 14.64 8.67342 16 8.67342C17.36 8.67342 18.736 8.84849 20 9.19862C23.056 7.14559 24.4 7.57529 24.4 7.57529C25.28 9.72381 24.72 11.379 24.56 11.7768C25.6 12.9068 26.208 14.3232 26.208 16.0898C26.208 22.1693 22.464 23.5062 18.896 23.904C19.472 24.3974 20 25.3682 20 26.8483V31.209C20 31.6387 20.256 32.148 21.072 32.0048C27.424 29.8721 32 23.92 32 16.8855C32 14.7956 31.5861 12.726 30.7821 10.7951C29.978 8.86426 28.7994 7.10981 27.3137 5.63196C25.828 4.15412 24.0641 2.98184 22.1229 2.18204C20.1817 1.38223 18.1012 0.970581 16 0.970581Z" fill="white"/>
</svg>
