<svg width="125" height="44" viewBox="0 0 125 44" fill="none" xmlns="http://www.w3.org/2000/svg">
<path fill-rule="evenodd" clip-rule="evenodd" d="M0 22C0 9.8494 9.8494 0 22 0C34.1506 0 44 9.8494 44 22C44 34.1506 34.1506 44 22 44C9.8494 44 0 34.1506 0 22ZM33.991 13.2H37.2196C35.3128 9.90887 32.3969 7.31926 28.9036 5.8146C29.2413 7.4683 29.5401 9.12959 29.7999 10.7971C27.3416 12.0169 25.2176 14.3213 24.2903 15.4249L22.2874 15.2889L20.2845 15.4249C19.2904 14.2418 16.921 11.6786 14.2387 10.5511C14.4894 8.96623 14.7753 7.38699 15.0964 5.8146C11.6031 7.31926 8.68716 9.90887 6.7804 13.2H10.5839C10.3645 14.4081 10.3055 15.9056 10.6817 17.6H4.9786C4.6156 19.0102 4.4 20.4776 4.4 22C4.4 23.5224 4.6134 24.9898 4.9786 26.4H10.5028L10.5109 26.4409L8.14653 27.8613L8.85433 29.2062L11.038 27.8613C11.5826 29.0208 12.3893 30.001 13.3992 30.8H6.7804C8.68716 34.0911 11.6031 36.6807 15.0964 38.1854C14.7901 36.692 14.3074 34.1459 13.9033 31.1723C15.2355 32.091 16.8658 32.7303 18.6813 33.0866C19.0037 35.2116 19.3664 37.3303 19.7692 39.4416C20.5018 39.5362 21.2432 39.6 22 39.6C22.7568 39.6 23.4982 39.5362 24.2308 39.4416C24.6262 37.365 24.9834 35.2813 25.3022 33.1917C27.0725 32.9095 28.685 32.369 30.0414 31.5733C29.6493 34.3742 29.196 36.7595 28.9036 38.1854C32.3969 36.6807 35.3128 34.0911 37.2196 30.8H31.1756C32.1855 30.001 32.9923 29.0208 33.5369 27.8613L35.7205 29.2062L36.4283 27.8613L34.064 26.4409L34.072 26.4H39.0214C39.3866 24.9898 39.6 23.5224 39.6 22C39.6 20.4776 39.3844 19.0102 39.0192 17.6H33.8931C34.2694 15.9056 34.2104 14.4081 33.991 13.2ZM25.6498 13.2C25.0822 9.042 24.3804 5.3328 24.2308 4.5584C23.4982 4.4638 22.7568 4.4 22 4.4C21.2432 4.4 20.5018 4.4638 19.7692 4.5584C19.6196 5.3328 18.9178 9.042 18.3502 13.2H25.6498ZM26.3897 22.7857C26.3965 22.5171 26.4 22.2548 26.4 22C26.4 21.3429 26.3764 20.6363 26.3347 19.8979C26.4852 19.8482 26.6439 19.8222 26.8053 19.8222C27.2047 19.8222 27.5878 19.9815 27.8701 20.2648C28.1525 20.5481 28.3112 20.9326 28.3112 21.3333C28.3112 21.7341 28.1525 22.1185 27.8701 22.4018C27.5878 22.6852 27.2047 22.8444 26.8053 22.8444C26.6634 22.8444 26.5236 22.8243 26.3897 22.7857ZM21.8075 26.4H22.7673L22.7392 26.456C23.0404 27.4231 23.8837 28.1333 24.9228 28.1333C25.5219 28.1333 26.0966 27.8946 26.5202 27.4695C26.9438 27.0444 27.1818 26.4678 27.1818 25.8667H27.9347C27.9347 26.6681 27.6174 27.4368 27.0526 28.0037C26.4877 28.5705 25.7216 28.8889 24.9228 28.8889C23.7934 28.8889 22.8145 28.2693 22.2874 27.3778C21.7603 28.2693 20.7815 28.8889 19.652 28.8889C18.8533 28.8889 18.0872 28.5705 17.5223 28.0037C16.9574 27.4368 16.6401 26.6681 16.6401 25.8667H17.3931C17.3931 26.4678 17.631 27.0444 18.0546 27.4695C18.4783 27.8946 19.0529 28.1333 19.652 28.1333C20.6911 28.1333 21.5344 27.4231 21.8356 26.456L21.8075 26.4ZM17.6116 22.8361C17.2703 22.8 16.9496 22.6476 16.7047 22.4018C16.4223 22.1185 16.2636 21.7341 16.2636 21.3333C16.2636 20.9326 16.4223 20.5481 16.7047 20.2648C16.9634 20.0052 17.3066 19.8498 17.6695 19.8256C17.6252 20.5902 17.6 21.3214 17.6 22C17.6 22.2707 17.604 22.5498 17.6116 22.8361Z" fill="#FF6B10"/>
<path d="M49.992 30.5V13.7H53.88V30.5H49.992ZM65.235 30.692C64.147 30.692 63.195 30.452 62.379 29.972C61.563 29.492 60.923 28.764 60.459 27.788C60.011 26.796 59.787 25.548 59.787 24.044C59.787 22.524 60.003 21.276 60.435 20.3C60.867 19.324 61.491 18.596 62.307 18.116C63.123 17.636 64.099 17.396 65.235 17.396C66.451 17.396 67.539 17.676 68.499 18.236C69.475 18.78 70.243 19.548 70.803 20.54C71.379 21.532 71.667 22.7 71.667 24.044C71.667 25.404 71.379 26.58 70.803 27.572C70.243 28.564 69.475 29.332 68.499 29.876C67.539 30.42 66.451 30.692 65.235 30.692ZM57.603 35.156V17.588H61.179V20.228L61.107 24.068L61.347 27.884V35.156H57.603ZM64.587 27.62C65.211 27.62 65.763 27.476 66.243 27.188C66.739 26.9 67.131 26.492 67.419 25.964C67.723 25.42 67.875 24.78 67.875 24.044C67.875 23.292 67.723 22.652 67.419 22.124C67.131 21.596 66.739 21.188 66.243 20.9C65.763 20.612 65.211 20.468 64.587 20.468C63.963 20.468 63.403 20.612 62.907 20.9C62.411 21.188 62.019 21.596 61.731 22.124C61.443 22.652 61.299 23.292 61.299 24.044C61.299 24.78 61.443 25.42 61.731 25.964C62.019 26.492 62.411 26.9 62.907 27.188C63.403 27.476 63.963 27.62 64.587 27.62ZM80.4133 30.692C79.0213 30.692 77.7813 30.412 76.6933 29.852C75.6053 29.276 74.7493 28.484 74.1253 27.476C73.5173 26.468 73.2133 25.324 73.2133 24.044C73.2133 22.748 73.5173 21.604 74.1253 20.612C74.7493 19.604 75.6053 18.82 76.6933 18.26C77.7813 17.684 79.0213 17.396 80.4133 17.396C81.7733 17.396 82.9573 17.684 83.9653 18.26C84.9733 18.82 85.7173 19.628 86.1973 20.684L83.2933 22.244C82.9573 21.636 82.5333 21.188 82.0213 20.9C81.5253 20.612 80.9813 20.468 80.3893 20.468C79.7493 20.468 79.1733 20.612 78.6613 20.9C78.1493 21.188 77.7413 21.596 77.4373 22.124C77.1493 22.652 77.0053 23.292 77.0053 24.044C77.0053 24.796 77.1493 25.436 77.4373 25.964C77.7413 26.492 78.1493 26.9 78.6613 27.188C79.1733 27.476 79.7493 27.62 80.3893 27.62C80.9813 27.62 81.5253 27.484 82.0213 27.212C82.5333 26.924 82.9573 26.468 83.2933 25.844L86.1973 27.428C85.7173 28.468 84.9733 29.276 83.9653 29.852C82.9573 30.412 81.7733 30.692 80.4133 30.692ZM96.273 30.5V27.98L96.033 27.428V22.916C96.033 22.116 95.785 21.492 95.289 21.044C94.809 20.596 94.065 20.372 93.057 20.372C92.369 20.372 91.689 20.484 91.017 20.708C90.361 20.916 89.801 21.204 89.337 21.572L87.993 18.956C88.697 18.46 89.545 18.076 90.537 17.804C91.529 17.532 92.537 17.396 93.561 17.396C95.529 17.396 97.057 17.86 98.145 18.788C99.233 19.716 99.777 21.164 99.777 23.132V30.5H96.273ZM92.337 30.692C91.329 30.692 90.465 30.524 89.745 30.188C89.025 29.836 88.473 29.364 88.089 28.772C87.705 28.18 87.513 27.516 87.513 26.78C87.513 26.012 87.697 25.34 88.065 24.764C88.449 24.188 89.049 23.74 89.865 23.42C90.681 23.084 91.745 22.916 93.057 22.916H96.489V25.1H93.465C92.585 25.1 91.977 25.244 91.641 25.532C91.321 25.82 91.161 26.18 91.161 26.612C91.161 27.092 91.345 27.476 91.713 27.764C92.097 28.036 92.617 28.172 93.273 28.172C93.897 28.172 94.457 28.028 94.953 27.74C95.449 27.436 95.809 26.996 96.033 26.42L96.609 28.148C96.337 28.98 95.841 29.612 95.121 30.044C94.401 30.476 93.473 30.692 92.337 30.692ZM108.446 30.692C106.926 30.692 105.742 30.308 104.894 29.54C104.046 28.756 103.622 27.596 103.622 26.06V14.732H107.366V26.012C107.366 26.556 107.51 26.98 107.798 27.284C108.086 27.572 108.478 27.716 108.974 27.716C109.566 27.716 110.07 27.556 110.486 27.236L111.494 29.876C111.11 30.148 110.646 30.356 110.102 30.5C109.574 30.628 109.022 30.692 108.446 30.692ZM101.63 20.756V17.876H110.582V20.756H101.63ZM117.939 30.692C116.835 30.692 115.771 30.564 114.747 30.308C113.739 30.036 112.939 29.7 112.347 29.3L113.595 26.612C114.187 26.98 114.883 27.284 115.683 27.524C116.499 27.748 117.299 27.86 118.083 27.86C118.947 27.86 119.555 27.756 119.907 27.548C120.275 27.34 120.459 27.052 120.459 26.684C120.459 26.38 120.315 26.156 120.027 26.012C119.755 25.852 119.387 25.732 118.923 25.652C118.459 25.572 117.947 25.492 117.387 25.412C116.843 25.332 116.291 25.228 115.731 25.1C115.171 24.956 114.659 24.748 114.195 24.476C113.731 24.204 113.355 23.836 113.067 23.372C112.795 22.908 112.659 22.308 112.659 21.572C112.659 20.756 112.891 20.036 113.355 19.412C113.835 18.788 114.523 18.3 115.419 17.948C116.315 17.58 117.387 17.396 118.635 17.396C119.515 17.396 120.411 17.492 121.323 17.684C122.235 17.876 122.995 18.156 123.603 18.524L122.355 21.188C121.731 20.82 121.099 20.572 120.459 20.444C119.835 20.3 119.227 20.228 118.635 20.228C117.803 20.228 117.195 20.34 116.811 20.564C116.427 20.788 116.235 21.076 116.235 21.428C116.235 21.748 116.371 21.988 116.643 22.148C116.931 22.308 117.307 22.436 117.771 22.532C118.235 22.628 118.739 22.716 119.283 22.796C119.843 22.86 120.403 22.964 120.963 23.108C121.523 23.252 122.027 23.46 122.475 23.732C122.939 23.988 123.315 24.348 123.603 24.812C123.891 25.26 124.035 25.852 124.035 26.588C124.035 27.388 123.795 28.1 123.315 28.724C122.835 29.332 122.139 29.812 121.227 30.164C120.331 30.516 119.235 30.692 117.939 30.692Z" fill="white"/>
</svg>
