<svg width="496" height="464" viewBox="0 0 496 464" fill="none" xmlns="http://www.w3.org/2000/svg">
<path fill-rule="evenodd" clip-rule="evenodd" d="M66.2466 370.508C-4.98932 318.985 80.3267 250.71 59.4855 169.071C38.6451 87.4321 -11.8386 -34.2941 187.324 9.07964C389.117 53.0273 517.101 109.616 486.855 284.9C456.609 460.185 137.483 422.031 66.2466 370.508Z" fill="#FF6B10"/>
<path fill-rule="evenodd" clip-rule="evenodd" d="M375.44 441.083C370.973 436.44 368.857 429.949 366.883 423.703C361.711 431.511 350.165 431.762 342.236 427.103C334.307 422.444 328.956 414.309 323.263 406.905C313.069 393.649 269.404 360.915 268.687 351.039C268.306 345.802 282.916 336.266 282.916 336.266L256.662 320.162C256.662 320.162 243.047 331.052 235.218 332.346C213.439 335.947 198.035 333.803 198.017 337.891C197.95 352.676 283.757 427.691 256.394 427.103C215.329 426.22 140.325 342.888 116.029 336.266C105.854 333.493 36.0689 337.891 36.0689 320.279C36.0689 296.626 98.4012 280.352 98.4012 280.352C98.4012 280.352 82.1561 223.238 101.819 176.532C106.322 165.835 111.897 153.407 112.44 142.898C112.589 140.014 191.2 62.3831 201.299 58.5049C224.846 49.4627 249.893 44.6834 274.985 44.4459C278.33 44.4145 373.706 58.5049 416.595 132.311C424.346 145.651 459.555 244.706 423.807 306.844C418.167 316.647 418.859 328.814 422.758 339.606C426.657 350.398 431.451 362.403 427.032 372.975C424.62 356.036 420.382 339.38 414.425 323.422C406.117 329.718 410.324 343.266 415.276 352.647C421.517 364.469 427.759 376.29 433.999 388.112C436.595 393.028 439.278 398.446 438.345 403.973C437.277 410.293 431.875 414.665 426.872 418.403C415.45 426.937 404.027 435.471 392.604 444.005C387.478 447.835 379.906 445.726 375.44 441.083Z" fill="white"/>
<path fill-rule="evenodd" clip-rule="evenodd" d="M221.136 179.505C222.011 177.037 225.16 176.017 227.484 177.046C229.807 178.075 231.25 180.648 231.613 183.252C231.978 185.857 231.425 188.504 230.714 191.029C230.066 193.332 229.283 195.594 228.372 197.798C228.287 198.003 228.174 198.232 227.965 198.281C227.743 198.333 227.538 198.152 227.378 197.983C223.429 193.813 221.049 188.069 220.842 182.213C220.81 181.3 220.832 180.363 221.136 179.505ZM227.962 180.108C227.313 179.529 226.477 179.149 225.624 179.177C223.633 179.24 222.244 181.504 222.288 183.58C222.332 185.657 223.394 187.542 224.423 189.319C225.16 190.593 225.897 191.866 226.635 193.14C226.886 193.573 227.381 194.069 227.772 193.768C227.93 193.647 227.991 193.434 228.043 193.237C228.344 192.081 228.647 190.924 228.948 189.767C229.38 188.113 229.815 186.432 229.788 184.719C229.761 183.005 229.209 181.224 227.962 180.108Z" fill="#FFB61D"/>
<path fill-rule="evenodd" clip-rule="evenodd" d="M226.659 186.754C226.174 186.897 225.644 186.87 225.174 186.679C224.264 186.309 223.635 185.291 223.687 184.274C223.74 183.255 224.471 182.314 225.415 182.049C226.845 181.647 228.456 183.02 228.361 184.562C228.299 185.562 227.585 186.483 226.659 186.754Z" fill="#FFB61D"/>
<path fill-rule="evenodd" clip-rule="evenodd" d="M252.728 428.769C254.361 428.993 253.758 431.636 252.698 432.952C242.577 445.515 229.361 455.345 214.674 461.237C211.38 462.558 207.973 463.694 204.452 463.947C197.923 464.416 191.419 461.757 186.256 457.564C181.093 453.371 177.158 447.735 173.952 441.787C165.184 425.52 161.508 406.325 163.613 387.795C163.811 386.052 164.952 383.738 166.493 384.446C166.046 390.641 165.977 396.866 166.286 403.07C166.589 409.164 167.264 415.275 168.942 421.121C170.496 426.533 172.887 431.639 175.38 436.656C177.942 441.812 180.658 446.953 184.358 451.294C188.059 455.635 192.862 459.162 198.326 460.288C205.177 461.698 212.208 459.238 218.524 456.133C231.623 449.695 243.373 440.293 252.728 428.769Z" fill="#00160A"/>
<path fill-rule="evenodd" clip-rule="evenodd" d="M300.118 358.163C312.014 345.961 323.91 333.759 335.805 321.557C336.472 320.874 337.457 320.145 338.245 320.668C339.295 321.368 338.455 323.049 337.569 323.962C324.766 337.164 311.962 350.366 299.158 363.568C298.236 363.079 297.968 361.764 298.292 360.74C298.618 359.716 299.38 358.919 300.118 358.163Z" fill="#00160A"/>
<path fill-rule="evenodd" clip-rule="evenodd" d="M209.049 287.985C208.325 288.116 207.599 288.247 206.874 288.378C205.466 286.175 204.025 283.89 203.584 281.284C203.142 278.678 203.969 275.644 206.188 274.358C208.698 272.904 209.455 269.326 208.655 266.45C207.855 263.574 205.875 261.243 203.933 259.036C201.963 256.794 198.802 254.413 196.461 256.229C194.936 257.413 192.652 256.744 191.287 255.364C189.922 253.984 189.2 252.076 188.317 250.32C186.646 246.998 184.21 244.001 181.024 242.26C177.837 240.518 173.849 240.173 170.642 241.872C167.46 243.559 165.453 246.914 162.741 249.333C160.029 251.752 155.551 253.037 153.107 250.325C152.486 249.635 152.069 248.612 152.422 247.741C152.776 246.869 154.146 246.569 154.584 247.398C155.699 249.51 158.782 249.48 160.709 248.148C162.637 246.815 163.843 244.636 165.424 242.876C168.517 239.435 173.218 237.642 177.711 238.194C182.204 238.744 186.379 241.622 188.622 245.718C189.703 247.692 190.37 249.936 191.781 251.668C193.193 253.399 195.758 254.46 197.568 253.195C199.613 251.766 202.282 253.542 204.076 255.299C206.505 257.677 208.872 260.248 210.24 263.416C211.608 266.583 211.825 270.481 210.037 273.413C208.549 275.853 205.702 277.829 205.948 280.711C206.179 283.396 209.143 285.29 209.049 287.985Z" fill="#00160A"/>
<path fill-rule="evenodd" clip-rule="evenodd" d="M240.451 167.041C244.807 169.168 248.681 172.568 250.92 177.005C253.159 181.441 253.615 186.952 251.608 191.508C247.455 200.932 234.251 204.601 232.795 214.861C232.424 217.474 232.929 220.191 232.31 222.752C231.882 224.522 230.944 226.102 230.194 227.752C228.585 231.291 227.825 235.245 228.002 239.158C226.324 240.104 224.351 238.088 224.136 236.11C223.922 234.133 224.681 232.171 224.64 230.182C224.564 226.442 221.79 223.466 219.423 220.655C215.874 216.439 212.79 211.476 212.213 205.899C212.027 204.102 212.105 202.269 211.718 200.507C211.301 198.612 210.367 196.895 209.542 195.151C207.316 190.45 205.809 185.025 207.179 179.98C208.55 174.936 213.659 170.763 218.508 172.152C219.885 172.546 221.232 173.351 222.646 173.131C225.127 172.746 226.128 169.659 227.858 167.765C230.958 164.369 236.378 165.054 240.451 167.041ZM219.363 216.06C222.113 219.832 224.863 223.604 227.613 227.376C230.766 223.914 229.462 218.313 230.42 213.644C231.727 207.283 237.184 202.965 241.912 198.722C246.64 194.478 251.335 188.671 250.273 182.261C249.42 177.111 245.108 173.452 240.975 170.494C238.645 168.826 235.955 167.15 233.176 167.685C230.366 168.227 228.44 170.824 226.416 172.928C224.391 175.03 221.338 176.857 218.804 175.479C215.238 173.54 210.698 176.848 209.692 180.908C208.686 184.967 210.132 189.214 211.721 193.067C213.309 196.919 215.101 200.912 214.799 205.093C214.505 209.161 216.995 212.813 219.363 216.06Z" fill="#00160A"/>
<path fill-rule="evenodd" clip-rule="evenodd" d="M0.0243065 129.425C-0.154185 128.921 0.693825 128.778 1.14851 129.032C1.1289 129.556 0.355654 129.822 0.0413697 129.411L0.0243065 129.425Z" fill="#00160A"/>
<path fill-rule="evenodd" clip-rule="evenodd" d="M329.835 335.985C330.769 336.121 331.265 337.319 331.053 338.276C330.84 339.234 330.149 339.984 329.486 340.682C324.127 346.33 318.768 351.978 313.408 357.625C313.013 358.042 312.548 358.49 311.985 358.471C311.229 358.446 310.734 357.534 310.827 356.751C310.919 355.968 311.413 355.31 311.892 354.699C316.819 348.412 322.167 342.485 327.884 336.971C328.433 336.441 329.094 335.877 329.835 335.985Z" fill="#00160A"/>
<path fill-rule="evenodd" clip-rule="evenodd" d="M172.257 254.311C175.21 254.59 177.48 257.483 177.987 260.529C178.494 263.574 177.583 266.688 176.349 269.498C175.668 271.046 174.886 272.545 174.009 273.983C173.379 275.017 172.575 276.103 171.416 276.304C169.48 276.639 168.121 274.417 167.374 272.526C166.322 269.863 165.358 267.163 164.482 264.432C164.052 263.092 163.638 261.68 163.858 260.285C164.194 258.153 165.933 256.558 167.754 255.526C169.137 254.742 170.691 254.164 172.257 254.311ZM169.483 269.994C169.71 270.362 169.951 270.739 170.306 270.973C170.597 271.164 170.954 271.245 171.295 271.196C172.173 271.068 172.737 270.186 173.186 269.39C174.36 267.303 175.565 265.113 175.697 262.698C175.829 260.283 174.513 257.596 172.242 257.098C169.586 256.516 167.11 259.291 166.885 262.111C166.66 264.932 168.018 267.611 169.483 269.994Z" fill="#FFB61D"/>
<path fill-rule="evenodd" clip-rule="evenodd" d="M172.13 260.035C172.859 260.28 173.487 260.835 173.84 261.544C174.153 262.174 174.248 262.922 174.102 263.616C173.764 265.219 172.026 266.337 170.5 265.934C168.974 265.531 167.957 263.684 168.393 262.107C168.829 260.53 170.632 259.53 172.13 260.035ZM171.792 263.362C172.348 263.057 171.852 261.947 171.27 262.194C170.819 262.256 170.522 262.847 170.727 263.27C170.933 263.692 171.567 263.79 171.88 263.447L171.792 263.362Z" fill="#FFB61D"/>
<path fill-rule="evenodd" clip-rule="evenodd" d="M328.402 290.377C326.756 288.523 325.276 286.509 323.988 284.37C323.577 283.686 324.43 282.795 325.197 282.902C325.965 283.008 326.53 283.679 327.019 284.306C328.725 286.486 330.43 288.667 332.136 290.848C331.94 291.626 330.997 291.979 330.252 291.772C329.506 291.566 328.926 290.968 328.402 290.377Z" fill="#00160A"/>
<path fill-rule="evenodd" clip-rule="evenodd" d="M384.598 391.432C384.617 391.686 384.527 391.935 384.433 392.17C383.497 394.548 382.102 396.729 380.358 398.545C377.582 401.434 373.821 403.575 372.334 407.36C371.983 408.256 370.669 408.386 369.986 407.729C369.304 407.071 369.21 405.944 369.513 405.028C369.815 404.112 370.44 403.357 371.05 402.628C373.04 400.249 375.029 397.871 377.019 395.492C378.544 393.67 380.135 391.793 382.248 390.794C383.117 390.383 384.525 390.44 384.598 391.432Z" fill="#00160A"/>
<path fill-rule="evenodd" clip-rule="evenodd" d="M330.429 280.474C332.393 282.879 334.356 285.285 336.321 287.691C336.65 288.095 336.999 288.555 336.977 289.084C336.942 289.908 335.972 290.4 335.202 290.208C334.433 290.016 333.851 289.375 333.334 288.75C331.671 286.738 330.18 284.57 328.887 282.28C328.383 281.388 328.187 279.827 329.172 279.694C329.678 279.626 330.099 280.069 330.429 280.474Z" fill="#00160A"/>
<path fill-rule="evenodd" clip-rule="evenodd" d="M307.812 293.882C307.513 293.445 307.204 292.875 307.457 292.407C307.874 291.634 309.005 292.233 309.569 292.897C311.565 295.243 313.263 297.863 314.607 300.668C313.327 301.344 311.966 299.969 311.134 298.75C310.027 297.128 308.919 295.505 307.812 293.882Z" fill="#00160A"/>
<path fill-rule="evenodd" clip-rule="evenodd" d="M309.581 300.79C310.381 301.657 311.188 303.081 310.357 303.913C309.51 304.758 308.156 303.804 307.408 302.863C305.598 300.585 304.025 298.104 302.723 295.476C303.558 294.728 304.796 295.598 305.558 296.425C306.9 297.88 308.24 299.335 309.581 300.79Z" fill="#00160A"/>
<path fill-rule="evenodd" clip-rule="evenodd" d="M311.758 292.261C311.397 291.706 311.057 290.945 311.449 290.414C312.008 289.655 313.146 290.352 313.773 291.052C315.589 293.082 317.407 295.113 319.223 297.143C319.142 297.877 318.317 298.316 317.616 298.208C316.915 298.099 316.331 297.607 315.807 297.11C314.279 295.669 312.917 294.037 311.758 292.261Z" fill="#00160A"/>
<path fill-rule="evenodd" clip-rule="evenodd" d="M323.213 287.758C324.345 289.263 325.476 290.768 326.607 292.273C327.056 292.87 327.53 293.636 327.237 294.33C326.955 294.999 326.064 295.175 325.419 294.888C324.775 294.6 324.323 293.992 323.903 293.407C322.722 291.763 321.552 290.111 320.393 288.45C320.137 288.084 319.869 287.673 319.908 287.221C319.972 286.468 320.896 286.077 321.587 286.307C322.277 286.537 322.766 287.163 323.213 287.758Z" fill="#00160A"/>
<path fill-rule="evenodd" clip-rule="evenodd" d="M322.361 294.698C322.595 294.965 322.846 295.275 322.82 295.636C322.787 296.117 322.245 296.415 321.788 296.343C321.331 296.272 320.953 295.946 320.609 295.624C318.35 293.507 316.447 290.979 315.011 288.19C315.293 287.423 316.405 287.943 316.938 288.548C318.746 290.598 320.553 292.648 322.361 294.698Z" fill="#00160A"/>
<path fill-rule="evenodd" clip-rule="evenodd" d="M344.291 281.128C344.467 281.339 344.653 281.581 344.641 281.861C344.626 282.283 344.144 282.547 343.745 282.476C343.345 282.405 343.022 282.107 342.724 281.821C340.598 279.772 338.564 277.62 336.632 275.373C337.315 274.416 338.758 275.183 339.587 276.005C341.232 277.634 342.802 279.344 344.291 281.128Z" fill="#00160A"/>
<path fill-rule="evenodd" clip-rule="evenodd" d="M337.554 283.173C336.365 281.475 335.176 279.778 333.987 278.08C333.769 277.769 333.54 277.39 333.657 277.024C333.887 276.305 334.935 276.626 335.499 277.105C337.287 278.626 338.805 280.491 339.953 282.579C340.175 282.984 340.389 283.463 340.232 283.9C340.031 284.456 339.3 284.619 338.776 284.387C338.252 284.154 337.891 283.653 337.554 283.173Z" fill="#00160A"/>
<path fill-rule="evenodd" clip-rule="evenodd" d="M347.042 276.934C345.868 275.618 344.693 274.3 343.518 272.984C343.1 272.515 343.607 271.682 344.218 271.614C344.829 271.546 345.387 271.948 345.872 272.343C346.763 273.068 347.622 273.836 348.446 274.643C348.902 275.09 349.364 275.578 349.537 276.204C349.708 276.832 349.472 277.628 348.881 277.841C348.201 278.085 347.532 277.484 347.042 276.934Z" fill="#00160A"/>
<path fill-rule="evenodd" clip-rule="evenodd" d="M344.763 279.541C343.137 277.802 341.58 275.994 340.097 274.123C339.839 273.797 339.567 273.396 339.676 272.989C339.801 272.53 340.377 272.35 340.811 272.504C341.244 272.657 341.561 273.038 341.857 273.402C343.215 275.078 344.574 276.755 345.933 278.431C346.3 278.885 346.662 279.598 346.245 280.002C345.824 280.409 345.164 279.969 344.763 279.541Z" fill="#00160A"/>
<path fill-rule="evenodd" clip-rule="evenodd" d="M422.093 386.983C423.928 386.393 428.573 385.079 430.408 384.489C431.23 384.225 432.452 384.191 432.606 385.074C432.734 385.8 431.932 386.294 431.261 386.529C429.408 387.179 424.681 388.354 422.74 388.598C422.049 388.685 421.046 388.416 421.186 387.706C421.266 387.297 421.71 387.107 422.093 386.983Z" fill="#00160A"/>
<path fill-rule="evenodd" clip-rule="evenodd" d="M217.081 306.983C219.986 307.027 223.42 307.732 224.578 310.509C225.667 313.118 223.955 316.255 221.555 317.608C219.155 318.962 216.297 318.996 213.568 318.992C176.338 318.942 139.11 318.006 101.92 316.183C99.6028 316.069 99.3837 312.583 99.9131 310.228C100.229 308.822 100.585 307.341 101.557 306.313C102.956 304.835 105.175 304.734 107.167 304.727C133.902 304.637 160.685 304.549 187.307 307.114C191.524 307.52 195.745 307.993 199.979 307.951C205.69 307.893 211.371 306.896 217.081 306.983ZM221.25 314.029C221.874 312.76 220.955 311.145 219.707 310.562C218.459 309.98 217.023 310.131 215.662 310.271C198.209 312.061 180.638 309.994 163.132 308.928C150.407 308.153 137.659 307.905 124.915 307.659C119.603 307.556 114.29 307.453 108.977 307.35C107.283 307.318 105.426 307.341 104.124 308.472C102.822 309.604 102.778 312.271 104.394 312.804C104.686 312.901 104.996 312.917 105.303 312.933C142.706 314.829 180.157 315.68 217.604 315.484C218.977 315.477 220.624 315.302 221.25 314.029Z" fill="#00160A"/>
<path fill-rule="evenodd" clip-rule="evenodd" d="M193.313 338.357C196.632 345.934 203.785 351.543 211.688 352.768C215.406 353.345 217.945 356.87 220.063 360.109C222.263 363.475 223.878 369.179 220.24 370.665C234.359 386.899 248.479 403.131 262.599 419.365C264.239 421.251 265.832 424.398 263.931 425.995C263.224 426.588 262.256 426.681 261.35 426.713C249.717 427.119 238.74 421.443 228.673 415.352C214.175 406.581 200.329 396.642 187.298 385.65C177.779 377.62 164.102 375.323 152.645 379.83C146.701 382.168 139.249 377.401 138.556 370.818C137.862 364.234 144.143 357.895 150.432 358.832C140.977 344.206 124.067 335.167 107.157 335.699C86.7472 336.342 66.2553 334.11 46.4141 329.082C44.6712 328.64 42.7998 328.088 41.707 326.606C39.5268 323.65 41.8133 319.448 44.2093 316.679C61.8608 296.285 89.0203 285.282 115.249 287.901C116.366 288.013 116.974 286.598 117.236 285.46C123.903 256.491 130.571 227.521 137.238 198.552C138.041 195.059 143.141 194.576 145.668 197.018C148.195 199.46 148.751 203.354 149.042 206.934C151.214 233.617 147.422 262.344 160.145 285.607C160.737 286.691 161.406 287.801 162.448 288.416C163.473 289.022 164.708 289.059 165.887 289.081C189.444 289.516 213.001 289.951 236.559 290.387C239.493 290.44 243.097 290.076 244.283 287.277C247.321 280.102 250.36 272.928 253.398 265.754C254.365 263.472 255.698 260.882 258.064 260.506C261.452 259.967 263.596 264.405 263.486 267.976C263.377 271.548 262.224 275.343 263.734 278.552C269.268 272.42 274.896 266.207 281.816 261.866C288.737 257.524 297.237 255.217 304.997 257.551C298.137 268.923 291.276 280.296 284.415 291.668C290.146 295.621 290.597 305.619 285.249 310.117C282.965 312.036 284.777 315.826 286.669 318.164C292.596 325.487 298.523 332.811 304.449 340.135C299.39 342.58 293.499 340.064 288.525 337.436C279.635 332.741 270.958 327.609 262.531 322.063C258.441 319.373 253.934 324.417 250.222 327.649C244.33 332.78 236.195 333.801 228.558 334.613C216.809 335.861 205.061 337.109 193.313 338.357ZM213.805 322.437C221.023 322.849 228.378 323.371 235.381 321.506C242.552 319.595 249.078 315.148 253.635 309.068C254.741 307.591 256.679 307.174 258.45 306.856C264.566 305.759 271.005 304.686 276.847 306.867C279.482 307.851 282.698 306.725 284.229 304.282C285.76 301.838 285.457 298.316 283.534 296.195C281.452 296.136 281.073 299.215 279.969 301.056C278.518 303.474 275.354 303.868 272.622 304.011C262.597 304.537 252.574 305.062 242.549 305.587C240.116 305.716 236.763 304.977 236.836 302.437C236.868 301.32 237.651 300.398 238.418 299.617C241.11 296.877 244.181 294.545 247.508 292.716C206.806 293.038 166.098 292.56 125.414 291.285C105.407 290.658 84.0734 290.183 67.0267 301.118C65.4354 302.139 64.191 305.149 66.037 305.446C71.4751 306.321 76.9132 307.195 82.3512 308.071C82.9988 308.175 83.6917 308.301 84.1607 308.779C85.5655 310.209 83.5973 312.511 81.7869 313.306C74.3163 316.584 65.4156 316.084 58.3267 311.987C56.7204 311.058 54.814 309.93 53.1775 310.799C51.2006 311.849 51.472 315.163 53.149 316.678C54.8267 318.193 57.2156 318.405 59.4299 318.548C79.3266 319.828 99.2234 321.108 119.119 322.389C124.712 322.748 130.322 323.108 135.914 322.744C161.843 321.06 187.866 320.957 213.805 322.437ZM242.849 402.853C235.885 392.865 227.953 383.61 219.213 375.276C216.351 372.548 213.83 369.459 211.317 366.379C200.331 352.914 189.345 339.448 178.359 325.983C177.262 324.638 175.366 324.462 173.674 324.406C159.245 323.929 144.768 325.047 130.563 327.735C129.513 327.933 128.38 328.19 127.686 329.036C126.078 330.998 128.088 333.864 129.972 335.537C148.833 352.28 168.387 368.174 188.56 383.16C192.273 385.917 196.041 388.665 200.234 390.532C208.144 394.054 216.055 397.575 223.964 401.097C230.016 403.792 237.231 406.426 242.849 402.853ZM148.389 254.185C148.099 250.25 148.097 246.248 147.06 242.454C145.191 235.619 140.211 230.251 135.253 225.373C134.868 224.995 134.361 224.588 133.864 224.777C133.411 224.95 133.248 225.515 133.145 226.005C129.449 243.549 125.754 261.093 122.059 278.637C121.362 281.948 120.661 285.305 120.811 288.692C133.766 288.862 146.721 289.033 159.676 289.202C153.222 278.739 149.305 266.589 148.389 254.185ZM300.604 260.011C292.557 259.293 284.269 262.377 278.476 268.244C267.864 278.989 256.531 288.961 244.589 298.063C242.954 299.309 241.202 300.69 240.647 302.72C250.653 302.25 260.658 301.78 270.664 301.309C273.302 301.185 276.408 300.773 277.67 298.353C284.574 285.112 292.238 272.3 300.604 260.011ZM43.7911 322.125C43.5189 322.734 43.2768 323.41 43.4284 324.063C43.6958 325.216 44.9879 325.696 46.0942 325.976C68.4648 331.635 91.6734 332.364 114.684 333.066C116.973 333.136 119.349 333.19 121.451 332.242C123.553 331.293 125.301 329.039 124.959 326.678C110.002 324.517 94.9051 323.41 79.8052 323.367C70.7592 323.34 61.4561 323.653 52.976 320.37C50.9299 319.579 48.6149 317.992 48.8752 315.733C46.6966 317.367 44.9284 319.591 43.7911 322.125ZM257.111 317.914C256.308 316.098 254.047 315.426 252.171 315.846C250.297 316.265 248.704 317.503 247.132 318.648C243.503 321.29 239.578 323.621 235.271 324.685C231.516 325.612 227.609 325.546 223.751 325.475C209.666 325.215 195.58 324.954 181.494 324.695C184.631 329.574 188.93 335.056 194.531 334.414C205.487 333.16 216.586 333.46 227.49 331.782C238.394 330.104 249.443 326.168 257.111 317.914ZM289.7 330.476C290.212 330.404 290.81 330.225 290.971 329.713C291.106 329.283 290.859 328.833 290.619 328.456C286.561 322.091 281.565 316.448 276.591 310.836C275.832 309.979 275.041 309.099 274.01 308.646C272.943 308.179 271.741 308.224 270.587 308.314C265.869 308.682 261.197 309.685 256.723 311.29C256.358 311.421 255.933 311.632 255.892 312.032C255.859 312.343 256.083 312.614 256.293 312.837C260.994 317.819 266.874 321.379 272.677 324.877C277.929 328.042 283.688 331.321 289.7 330.476ZM155.939 362.479C155.501 362.126 155.034 361.76 154.484 361.685C154.038 361.625 153.592 361.765 153.163 361.904C152.168 362.226 151.174 362.548 150.18 362.869C149.206 363.184 147.989 364.119 148.551 365.006C150.304 367.774 151.016 371.239 150.503 374.512C150.337 375.575 151.803 375.954 152.832 375.878C158.154 375.487 163.475 375.095 168.798 374.703C169.352 374.662 170.102 374.369 169.972 373.805C165.295 370.03 160.617 366.254 155.939 362.479ZM247.127 287.443C246.754 288.462 247.751 289.569 248.792 289.682C249.833 289.794 250.824 289.246 251.739 288.715C255.036 286.801 258.593 284.579 259.838 280.864C260.244 279.655 260.37 278.365 260.492 277.089C260.701 274.9 260.912 272.711 261.121 270.521C261.168 270.036 261.206 269.509 260.959 269.094C260.712 268.679 260.058 268.511 259.784 268.907C258.677 270.509 257.054 271.715 255.239 272.281C254.454 272.526 253.612 272.668 252.95 273.172C252.163 273.772 251.777 274.774 251.427 275.724C249.994 279.631 248.561 283.536 247.127 287.443ZM214.336 357.593C212.9 354.8 208.941 353.861 206.486 355.733C209.651 358.31 211.436 362.288 214.121 365.4C215.045 366.472 216.247 367.508 217.626 367.413C219.005 367.318 220.145 365.397 219.168 364.378C217.251 362.379 215.617 360.085 214.336 357.593ZM143.984 365.213C141.848 367.388 142.576 371.07 143.457 374.043C143.754 375.046 144.702 376.293 145.488 375.637C145.755 375.415 145.85 375.042 145.93 374.696C146.325 372.987 146.722 371.239 146.545 369.491C146.369 367.744 145.506 365.968 143.984 365.213Z" fill="#00160A"/>
<path fill-rule="evenodd" clip-rule="evenodd" d="M380.202 445.221C375.735 440.578 373.619 434.086 371.645 427.84C366.473 435.649 359.764 441.192 351.836 436.533C343.906 431.873 333.718 418.446 328.025 411.043C317.831 397.787 305.722 386.136 292.232 376.604C299.436 384.844 303.745 395.779 304.177 406.919C309.642 406.861 315.107 406.801 320.572 406.742C302.198 413.269 282.515 415.757 263.177 413.995C273.685 404.783 281.901 392.755 286.816 379.391C285.719 375.774 280.508 376.612 277.465 378.689C274.421 380.766 270.483 383.403 267.551 381.157C263.943 378.394 264.191 369.736 259.905 371.09C248.779 374.605 235.589 367.622 231.746 356.183C229.121 357.893 226.497 359.603 223.873 361.314C222.609 357.076 228.46 353.801 232.404 355.473C236.347 357.144 238.658 361.302 241.392 364.704C244.126 368.104 248.514 371.107 252.416 369.335C259.689 366.033 269.254 371.997 269.903 380.239C275.543 375.521 283.277 373.65 290.333 375.298C285.832 368.501 280.809 362.079 275.327 356.115C279.495 350.325 284.647 345.309 290.473 341.372C287.614 347.006 283.65 352.03 278.899 356.042C303.27 380.953 327.641 405.865 352.014 430.775C353.548 432.343 355.306 434.015 357.455 434.045C359.809 434.079 361.707 432.146 363.312 430.351C374.75 417.553 386.189 404.756 397.628 391.959C400.607 388.624 403.743 384.949 404.19 380.415C404.751 374.721 400.939 369.672 397.299 365.388C382.652 348.149 367.069 331.776 350.649 316.372C343.446 309.616 333.951 302.591 324.891 306.168C313.958 310.485 311.357 327.639 300.127 331.027C303.484 326.215 306.842 321.404 310.199 316.592C303.542 311.571 295.216 300.366 294.783 291.812C300.127 286.737 306.715 282.893 312.18 279.947C306.715 266.532 307.364 263.743 314.672 261.911C321.98 260.079 328.311 258.264 335.027 255.922C353.648 249.429 362.535 218.645 346.906 205.859C338.307 198.825 273.865 129.776 246.196 104.318C248.291 114.062 235.979 123.249 227.809 118.038C229.376 123.655 225.608 130.452 220.043 131.193C214.477 131.934 209.048 125.5 210.996 120.014C212.673 115.293 218.038 113.339 221.153 109.492C224.268 105.645 221.551 97.1892 217.317 99.6111C215.081 108.994 201.919 112.992 195.199 106.329C192.833 103.983 189.734 103.407 186.566 103.961C182.684 104.639 175.969 106.211 173.098 109.113C168.599 113.659 167.584 120.3 162.228 123.386C161.375 123.878 160.48 124.3 159.534 124.636C152.659 127.079 143.033 119.985 146.603 113.39C127.039 132.196 113.61 157.815 108.993 185.137C119.204 188.172 121.142 202.153 121.114 213.222C109.595 216.27 120.43 239.193 110.469 245.947C99.1115 253.648 102.269 271.555 106.766 284.878C95.2544 259.048 93.8695 228.496 102.993 201.65C102.092 218.682 101.19 235.714 100.288 252.746C108.012 251.567 111.132 241.753 111.771 233.642C112.41 225.53 112.896 215.985 119.437 211.543C116.995 205.054 115.993 197.98 116.531 191.031C113.688 190.074 110.846 189.117 108.003 188.161C106.295 200.701 92.9354 206.869 81.9187 212.209C70.0251 217.973 58.8363 225.314 48.7062 233.999C37.8404 243.315 27.4928 256.123 28.6962 270.736C29.8531 284.786 41.4665 295.531 53.6585 301.638C40.603 301.607 29.3967 289.499 27.2922 276.064C25.1876 262.631 30.8023 248.811 39.58 238.735C48.357 228.658 59.9966 221.809 71.7997 215.989C87.256 208.369 106.004 198.485 106.581 180.669C107.061 165.818 122.684 151.264 115.2 138.618C104.687 120.856 98.8234 100.135 98.4044 79.2677C98.1972 68.9736 99.9996 57.32 108.094 51.4195C112.124 48.4821 117.138 47.4569 122.023 46.8719C140.138 44.7032 158.802 47.7292 175.43 55.5327C185.244 60.1374 195.962 66.5211 206.061 62.6429C229.608 53.5998 254.654 48.8214 279.747 48.5839C283.092 48.5516 285.869 45.9916 288.197 43.4877C297.362 33.6371 305.01 22.2383 314.984 13.2821C324.957 4.32597 338.224 -2.12175 351.116 0.649998C364.612 3.55182 374.687 16.0822 379.096 29.6935C383.505 43.3057 383.255 58.0109 382.957 72.3735C382.424 98.0969 413.37 112.105 421.357 136.449C426.066 150.802 441.601 157.454 455.573 161.689C469.545 165.923 485.196 170.614 492.397 183.796C499.104 196.074 495.788 212.157 487.869 223.624C479.952 235.091 468.228 242.948 456.791 250.528C438.274 262.801 443.472 294.191 428.569 310.981C421.056 319.445 423.62 332.951 427.52 343.743C431.419 354.535 436.213 366.54 431.794 377.113C429.381 360.173 425.144 343.518 419.186 327.559C410.879 333.856 415.086 347.404 420.038 356.785C426.279 368.607 432.52 380.428 438.761 392.25C441.357 397.166 444.04 402.584 443.107 408.11C442.039 414.43 436.637 418.802 431.634 422.541C420.212 431.075 408.789 439.609 397.366 448.143C392.24 451.973 384.668 449.863 380.202 445.221ZM404.58 336.264C403.578 335.088 401.744 335.662 400.375 336.321C399.003 336.982 397.631 337.642 396.259 338.303C395.959 338.448 395.626 338.596 395.307 338.505C394.705 338.335 394.604 337.405 394.982 336.888C395.36 336.371 396.001 336.163 396.594 335.962C397.859 335.534 399.092 335.009 400.282 334.39C400.963 334.038 401.693 333.571 401.878 332.803C402.063 332.035 401.217 331.101 400.591 331.551C398.749 332.874 396.678 333.848 394.507 334.41C393.856 334.578 392.841 334.367 392.994 333.686C393.053 333.425 393.286 333.254 393.503 333.11C395.44 331.841 397.553 330.866 399.756 330.224C400.55 329.993 400.352 328.601 399.597 328.259C398.84 327.917 397.977 328.263 397.221 328.607C395.395 329.437 393.569 330.267 391.743 331.096C391.351 331.275 390.911 331.509 390.806 331.941C390.713 332.329 390.928 332.717 391.134 333.054C392.462 335.221 393.789 337.387 395.117 339.555C395.319 339.885 395.548 340.238 395.905 340.359C396.294 340.49 396.709 340.308 397.078 340.128C399.606 338.898 402.107 337.609 404.58 336.264ZM279.807 100.559C275.508 100.635 272.28 95.5401 273.08 91.1365C273.88 86.7321 277.677 83.4364 281.79 82.1307C287.379 80.3567 294.052 81.3951 298.507 77.454C300.507 75.6841 301.729 73.1414 303.552 71.1729C307.524 66.8819 314.434 65.9733 319.303 69.1035C320.396 66.1123 317.161 63.2204 314.134 62.6876C311.107 62.1547 307.842 62.791 305.053 61.4522C300.154 59.1006 294.386 62.1216 290.465 65.9824C286.544 69.8441 283.329 74.7077 278.496 77.2041C273.664 79.7005 266.352 78.3079 265.023 72.8584C264.609 71.1605 264.558 68.9107 262.97 68.3381C260.465 67.4346 259.161 64.3855 259.31 61.626C259.458 58.8665 260.727 56.3271 261.969 53.8845C257.059 53.6271 252.129 53.786 247.244 54.3594C246.072 54.4968 244.582 55.0131 244.585 56.2418C244.59 58.7829 242.328 60.6057 240.295 62.0066C235.992 64.9721 231.689 67.9377 227.386 70.9032C227.52 73.8646 231.709 74.5737 234.163 73.0736C236.616 71.5734 238.344 68.8917 240.989 67.802C242.402 67.2194 243.953 67.1483 245.471 67.0837C248.063 66.9737 250.656 66.8636 253.248 66.7536C256.57 66.6129 261.052 67.4925 261.228 70.9537C261.372 73.7926 258.349 75.4508 256.413 77.454C252.008 82.0115 252.024 90.8337 246.242 93.1869C244.187 94.0226 243.635 96.9898 244.535 99.089C245.437 101.187 247.316 102.614 249.095 103.974C280.133 127.717 334.203 188.931 335.386 189.094C336.568 189.258 337.956 188.373 337.891 187.131C337.719 183.919 337.553 180.648 338.307 177.528C339.06 174.409 340.89 171.406 343.71 170.101C346.31 168.9 350.093 168.628 350.656 165.721C351.914 159.22 358.157 154.192 364.51 154.564C367.63 154.747 371.074 155.989 373.671 154.175C371.576 152.104 368.481 151.676 365.884 150.361C363.287 149.046 361.003 145.718 362.555 143.179C364.846 139.431 361.508 134.529 362.195 130.141C362.486 128.279 363.494 126.631 364.561 125.107C368.176 119.941 372.743 115.501 377.938 112.101C379.146 111.311 379.448 109.646 379.639 108.173C380.098 104.615 380.557 101.057 381.017 97.4995C381.337 95.0172 381.554 92.1691 379.921 90.3331C374.604 84.3581 365.752 84.162 357.939 84.4285C350.126 84.6941 341.297 84.589 335.884 78.7084C334.204 76.8831 331.137 77.5037 329.314 79.1743C327.492 80.8448 326.485 83.2502 325.129 85.3478C320.892 91.9002 312.688 95.373 305.269 93.7553C301.295 92.889 297.288 90.7054 293.387 91.8746C288.185 93.4335 285.218 100.463 279.807 100.559ZM429.131 261.838C429.37 262.743 429.719 263.775 430.57 264.08C431.252 264.324 431.988 263.991 432.638 263.664C434.796 262.58 436.954 261.497 439.113 260.413C440.221 259.856 441.466 259.118 441.662 257.853C445.659 232.19 444.501 205.668 438.286 180.49C436.816 174.536 435.063 168.643 432.727 162.999C429.743 155.787 425.832 149.037 421.818 142.391C416.041 132.825 410.02 123.418 403.765 114.184C402.605 116.071 402.259 118.357 401.669 120.512C401.078 122.668 400.089 124.902 398.19 125.953C396.291 127.003 393.374 126.111 393.037 123.898C392.309 119.112 387.383 115.493 382.815 116.389C381.833 116.582 381.508 117.855 381.386 118.89C380.274 128.29 379.162 137.691 378.051 147.092C377.97 147.775 377.936 148.589 378.452 149.019C378.881 149.377 379.493 149.298 380.043 149.289C383.152 149.241 385.863 152.626 385.263 155.806C384.662 158.987 380.922 161.048 378.063 159.774C376.829 159.225 375.862 160.969 375.553 162.33C373.686 170.548 371.818 178.766 369.951 186.984C369.4 189.409 371.408 191.697 373.567 192.761C375.727 193.826 378.195 194.212 380.177 195.604C385.14 199.089 384.927 207.016 388.94 211.644C392.21 215.413 398.261 216.098 402.232 213.149C405.784 210.511 407.328 205.691 407.33 201.143C407.331 198.042 409.178 195.023 411.875 193.715C414.572 192.407 417.978 192.877 420.254 194.873C422.471 196.818 423.476 199.839 424.384 202.706C424.785 203.972 425.185 205.352 424.755 206.606C424.052 208.657 421.634 209.265 419.657 209.969C416.026 211.263 412.843 213.883 410.793 217.264C409.793 218.915 409.115 221.23 410.354 222.695C413.379 226.274 416.405 229.854 419.431 233.433C421.013 235.305 422.643 237.267 423.278 239.672C425.229 247.061 427.18 254.449 429.131 261.838ZM120.899 144.169C125.641 134.943 130.429 125.643 136.871 117.614C142.512 110.582 149.307 104.669 156.092 98.8383C165.032 91.1564 174.025 83.5431 183.072 75.9994C186.838 72.8592 190.663 69.6993 195.053 67.6199C181.891 61.573 168.644 55.4955 154.67 51.9433C140.695 48.3919 125.811 47.4652 112.022 51.734C110.693 52.1452 109.359 52.6127 108.212 53.4236C106.276 54.7938 105.053 57.0122 104.135 59.257C100.529 68.0775 100.731 78.0721 101.904 87.5827C104.367 107.548 110.883 126.96 120.899 144.169ZM418.09 417.998C417.966 419.338 416.579 420.598 415.415 420.016C414.865 419.741 414.53 419.157 414.228 418.605C409.585 410.156 404.942 401.705 400.3 393.254C397.304 394.43 395.864 398.195 396.201 401.514C396.537 404.832 398.235 407.808 399.891 410.664C402.425 415.03 404.959 419.397 407.493 423.764C406.161 425.195 404.016 423.294 403.029 421.586C399.513 415.499 395.996 409.413 392.479 403.327C385.763 410.529 379.048 417.731 372.331 424.933C376.705 432.061 381.079 439.189 385.453 446.317C386.483 447.997 388.69 448.533 390.56 448.111C392.429 447.689 394.045 446.506 395.604 445.351C407.325 436.658 419.047 427.967 430.769 419.276C431.66 418.614 432.614 417.861 432.876 416.754C433.149 415.596 432.581 414.422 432.03 413.377C405.514 363.087 377.215 313.819 347.209 265.707C346.326 264.292 345.209 262.727 343.592 262.615C342.514 262.541 341.515 263.153 340.595 263.743C328.695 271.378 316.795 279.013 304.894 286.648C302.691 288.062 300.487 289.476 298.284 290.89C297.71 291.257 297.092 291.683 296.9 292.356C296.673 293.151 297.124 293.969 297.558 294.664C301.893 301.607 306.469 308.387 311.275 314.985C316.954 308.612 323.711 301.748 332.052 301.964C339.253 302.15 345.194 307.611 350.439 312.759C353.507 315.77 356.575 318.781 359.644 321.792C354.795 312.32 349.061 303.342 342.551 295.024C342.27 293.623 344.636 294.006 345.548 295.075C354.633 305.73 359.633 319.732 369.2 329.917C378.977 340.326 388.753 350.734 398.529 361.143C402.682 365.564 407.089 370.559 407.416 376.737C407.715 382.379 404.506 387.513 401.281 392.054C406.967 399.052 412.169 406.479 416.832 414.258C417.516 415.4 418.214 416.658 418.09 417.998ZM314.552 55.0462C318.669 55.8968 322.791 56.7482 326.83 57.9373C337.234 61.0004 346.906 66.2406 356.494 71.446C364.861 75.9886 373.275 80.5619 380.786 86.5144C381.602 65.2353 380.793 44.1058 374.002 24.0206C372.044 18.2286 367.314 11.9831 362.712 8.14873C357.31 3.64697 349.81 2.85478 342.963 3.87592C331.003 5.65979 320.11 12.338 311.138 20.7738C302.165 29.2095 294.891 39.3878 287.678 49.4933C296.636 51.3442 305.594 53.1952 314.552 55.0462ZM434.699 158.333C446.255 189.071 450.029 222.948 445.538 255.628C460.203 246.866 473.31 235.281 484.001 221.632C489.328 214.829 494.265 206.824 493.919 198.05C493.633 190.839 489.699 184.183 484.503 179.414C479.309 174.645 472.928 171.527 466.516 168.809C456.203 164.436 445.551 160.93 434.699 158.333ZM412.036 210.889C414.752 208.811 417.658 207.005 420.701 205.502C420.693 203.477 420.673 201.386 419.893 199.531C419.114 197.676 417.365 196.107 415.428 196.246C413.391 196.392 411.855 198.332 411.208 200.351C410.562 202.37 410.55 204.546 410.103 206.623C408.867 212.366 403.984 217.054 398.393 217.868C392.802 218.683 386.875 215.569 384.175 210.398C382 206.232 381.674 200.841 378.208 197.767C376.288 196.064 373.733 195.411 371.28 194.809C370.71 194.67 370.104 194.531 369.551 194.728C368.66 195.046 368.243 196.083 367.929 197.007C365.828 203.2 363.727 209.393 361.626 215.586C360.849 217.877 360.21 220.805 361.947 222.426C377.984 237.389 384.512 261.189 400.822 275.829C401.305 276.262 401.9 276.715 402.52 276.561C410.301 274.636 417.843 271.67 424.905 267.76C425.467 267.448 426.054 267.104 426.376 266.532C426.703 265.952 426.701 265.238 426.668 264.566C426.435 259.939 425.116 255.375 422.857 251.385C421.789 249.497 420.478 247.634 420.274 245.453C420.1 243.59 420.763 241.68 420.339 239.862C419.993 238.378 418.973 237.181 417.987 236.05C415.202 232.853 412.417 229.658 409.632 226.462C408.255 224.881 406.824 223.195 406.401 221.105C405.579 217.033 408.819 213.351 412.036 210.889ZM237.486 116.801C240.772 114.741 242.763 110.631 242.404 106.651C241.879 100.844 237.082 96.6117 232.654 93.0462C225.398 87.2054 208.806 73.0131 201.512 69.9624C194.217 66.9116 161.942 96.9269 150.727 108.435C150.161 109.016 149.57 109.65 149.412 110.462C149.254 111.274 145.827 120.012 152.727 122.136C159.628 124.26 160.368 122.624 163.187 120.012C166.006 117.401 167.647 113.697 168.972 110.016C170.102 106.872 173.523 105.368 176.679 104.697C179.835 104.027 183.236 103.777 185.846 101.81C188.564 99.7625 192.361 99.8817 195.46 101.22C198.558 102.559 201.117 104.941 203.611 107.281C205.694 109.234 209.063 107.05 210.347 104.452C211.631 101.856 212.171 98.6521 214.417 96.9054C217.628 94.4074 222.557 96.6431 224.535 100.276C227.347 105.443 225.359 112.82 220.377 115.704C217.49 117.375 213.265 118.495 213.15 121.935C213.093 123.646 214.238 125.15 215.514 126.227C217.804 128.158 221.532 129.074 223.483 126.774C226.263 123.496 223.159 116.569 227.009 114.827C230.409 113.289 234.311 118.794 237.486 116.801ZM325.282 80.1283C326.434 78.2657 327.588 76.2253 329.51 75.2754C331.964 74.0623 334.914 75.0263 337.242 76.4851C339.572 77.9439 341.652 79.8966 344.206 80.8614C346.806 81.8436 349.656 81.7112 352.418 81.5655C357.011 81.3239 361.606 81.0823 366.199 80.8407C338.43 64.0661 307.196 52.3024 275.104 51.9714C272.399 51.9441 269.632 52.0078 267.093 52.9834C264.555 53.9598 262.25 56.0135 261.6 58.7506C260.608 62.9201 264.247 67.3758 268.364 67.509C266.213 69.1507 266.544 72.9635 268.593 74.7417C270.643 76.519 273.709 76.5049 276.169 75.4351C278.629 74.3644 280.623 72.4124 282.558 70.5002C286.158 66.9431 289.76 63.3851 293.361 59.8271C295.624 57.5914 299.149 57.4962 302.207 58.1276C305.266 58.7589 308.261 59.9802 311.378 59.9008C317.923 59.7353 323.721 66.7412 322.604 73.4674C319.667 70.5788 315.393 69.24 311.415 69.9624C307.437 70.6839 303.849 73.4492 302.019 77.2033C300.537 80.2458 297.227 81.8543 294.009 82.4799C290.791 83.1062 287.466 82.9755 284.26 83.6664C281.054 84.3565 277.785 86.1164 276.474 89.2433C275.162 92.371 276.876 96.8309 280.136 97.1462C283.933 97.5136 286.15 92.865 289.343 90.693C292.383 88.6261 296.35 88.8966 299.896 89.7001C303.443 90.5035 306.988 91.7711 310.604 91.4451C316.888 90.8783 321.865 85.6556 325.282 80.1283ZM426.973 270.75C419.697 273.675 412.421 276.6 405.145 279.525C404.132 279.931 402.901 280.971 403.509 281.908C410.449 292.587 415.792 304.393 419.284 316.768C419.624 317.972 421.378 317.071 422.063 316.038C428.426 306.445 433.5 295.925 437.089 284.878C437.739 282.879 438.344 280.719 437.787 278.69C436.912 275.501 433.624 273.893 431.201 271.743C430.532 271.149 429.855 270.462 428.985 270.33C428.301 270.226 427.619 270.49 426.973 270.75ZM343.035 175.894C339.693 179.594 342.501 185.863 340.783 190.62C340.403 191.674 339.788 192.786 340.139 193.852C340.314 194.383 340.706 194.799 341.086 195.197C342.274 196.439 343.463 197.68 344.651 198.922C345.584 199.896 347.098 200.906 348.07 199.974C352.067 196.142 356.91 193.272 362.114 191.654C363.612 191.187 365.233 190.766 366.279 189.553C367.202 188.484 367.499 186.998 367.762 185.586C369.231 177.682 370.691 169.777 372.14 161.87C372.253 161.253 372.362 160.591 372.121 160.016C371.865 159.405 371.274 159.031 370.697 158.745C364.843 155.837 356.971 158.816 354.268 164.961C353.351 167.046 352.927 169.462 351.387 171.1C349.141 173.488 345.233 173.461 343.035 175.894ZM226.317 74.7979C225.186 73.7272 224.015 72.3835 224.127 70.794C224.245 69.1002 225.75 67.9327 227.113 67.0026C231.943 63.7086 236.774 60.4146 241.605 57.1214C241.487 56.1434 240.172 56.0399 239.242 56.2162C226.734 58.5876 214.48 62.4096 202.779 67.5901C215.828 75.977 228.347 85.2609 240.228 95.3614C241.67 91.949 245.381 90.2693 247.578 87.327C250.353 83.6101 250.56 78.0903 253.974 75.004C255.648 73.4889 258.136 72.4389 258.471 70.1544C255.541 70.1759 252.611 70.1974 249.681 70.2181C246.116 70.2445 242.322 70.3405 239.36 72.4083C236.776 74.2129 234.789 77.4954 231.68 77.588C229.631 77.6493 227.835 76.2344 226.317 74.7979ZM372.396 278.026C374.67 282.277 376.944 286.527 379.219 290.779C375.052 276.959 370.084 263.401 364.35 250.206C364.147 249.737 363.914 249.237 363.477 248.996C362.939 248.699 362.283 248.895 361.706 249.096C345.553 254.727 329.398 260.358 313.244 265.99C312.753 266.16 312.221 266.365 311.957 266.829C311.641 267.387 311.83 268.096 312.042 268.705C312.989 271.428 314.228 274.041 315.729 276.479C325.86 270.334 335.991 264.187 346.122 258.041C347.682 257.095 349.324 256.123 351.127 256.052C352.618 255.993 354.068 256.564 355.402 257.265C363.317 261.427 368.078 269.954 372.396 278.026ZM299.051 393.033C297.015 388.499 293.52 384.786 289.509 382.034C284.583 391.575 278.93 400.708 272.62 409.319C272.138 409.978 271.96 411.325 272.754 411.267C280.446 410.703 288.139 410.139 295.832 409.576C297.376 409.462 299.232 409.124 299.8 407.622C301.56 402.964 301.088 397.568 299.051 393.033ZM415.199 326.138C415.821 325.144 416.455 324.121 416.709 322.963C417.042 321.43 416.674 319.836 416.277 318.32C413.226 306.662 408.425 295.536 402.434 285.192C401.736 283.988 400.986 282.754 399.85 281.995C398.714 281.235 397.082 281.096 396.091 282.05C394.767 283.326 395.27 285.578 395.873 287.349C400.649 301.378 405.425 315.408 410.201 329.437C410.486 330.273 411.134 331.302 411.928 330.981C412.237 330.856 412.437 330.55 412.619 330.261C413.478 328.886 414.339 327.512 415.199 326.138ZM367.262 147.702C368.644 148.918 370.479 149.378 372.242 149.802C373.656 150.141 374.491 148.22 374.736 146.729C376.37 136.775 377.42 126.728 378.468 116.688C377.667 116.333 376.816 117.015 376.19 117.648C373.943 119.921 371.696 122.194 369.449 124.466C367.885 126.049 366.249 127.758 365.753 129.971C364.809 134.181 368.252 138.981 366.075 142.663C365.127 144.268 365.879 146.486 367.262 147.702ZM362.368 227.332C361.829 226.7 361.246 226.048 360.474 225.787C359.702 225.526 358.695 225.822 358.426 226.62C356.034 233.755 353.642 240.89 351.249 248.025C351.022 248.703 351.175 249.845 351.836 249.641C355.871 248.4 359.593 246.203 363.645 245.023C367.697 243.844 372.435 243.858 375.672 246.659C371.897 239.759 367.43 233.269 362.368 227.332ZM396.928 123C398.141 119.568 399.355 116.136 400.569 112.704C400.804 112.038 400.338 111.346 399.901 110.803C395.568 105.422 391.199 100.004 385.953 95.5939C385.73 95.4061 385.477 95.2108 385.19 95.2265C384.645 95.2571 384.428 95.9638 384.351 96.5273C383.698 101.312 383.044 106.098 382.391 110.884C382.201 112.278 383.433 113.491 384.725 113.903C386.017 114.315 387.408 114.2 388.736 114.459C391.186 114.934 393.355 116.761 394.314 119.159C394.923 120.68 395.373 122.703 396.928 123ZM358.192 215.443C360.487 209.327 362.591 203.133 364.5 196.874C364.629 196.453 364.756 195.995 364.621 195.576C364.256 194.459 362.669 194.748 361.657 195.277C357.679 197.354 353.853 199.749 350.226 202.434C349.775 202.767 349.283 203.187 349.266 203.763C349.252 204.199 349.522 204.582 349.779 204.926C352.474 208.525 355.28 212.033 358.192 215.443ZM391.844 316.262C391.415 315.773 390.709 315.698 390.073 315.709C388.634 315.733 387.201 316.039 385.869 316.605C385.213 316.884 384.562 317.229 383.855 317.268C383.148 317.305 382.356 316.922 382.182 316.206C384.05 314.813 386.316 314.008 388.611 313.921C389.632 313.882 389.661 312.075 388.765 311.563C387.869 311.052 386.764 311.426 385.811 311.808C384.235 312.439 382.659 313.071 381.083 313.702C380.624 313.886 380.152 313.307 380.218 312.8C380.284 312.292 380.679 311.907 381.071 311.595C382.488 310.466 384.18 309.715 385.943 309.431C386.783 309.296 386.919 307.937 386.305 307.323C385.691 306.71 384.746 306.671 383.898 306.716C381.428 306.851 378.98 307.409 376.683 308.361C378.642 312.027 380.642 315.668 382.684 319.284C383.213 320.22 383.786 321.199 384.702 321.717C386.346 319.551 388.847 318.116 391.482 317.825C392.114 317.755 392.275 316.751 391.844 316.262ZM425.592 382.391C424.082 382.793 422.586 383.251 421.108 383.765C420.703 383.906 420.236 384.126 420.166 384.565C420.126 384.826 420.247 385.082 420.364 385.317C421.232 387.057 422.101 388.797 422.969 390.536C423.321 391.242 424.031 392.071 424.689 391.668C426.855 390.34 429.274 389.463 431.763 389.105C432.448 389.006 432.896 388.24 432.912 387.519C432.928 386.799 432.621 386.119 432.322 385.468C431.809 384.354 431.247 383.18 430.238 382.531C428.882 381.658 427.137 381.981 425.592 382.391ZM431.42 401.514C430.829 401.626 430.147 401.812 429.916 402.389C429.727 402.86 429.926 403.394 430.124 403.86C430.877 405.642 431.63 407.424 432.383 409.207C432.619 409.763 432.93 410.387 433.5 410.52C433.904 410.614 434.316 410.422 434.69 410.235C435.851 409.656 437.012 409.076 438.174 408.496C438.827 408.17 439.519 407.806 439.877 407.149C440.235 406.493 440.046 405.466 439.347 405.265C438.974 405.158 438.581 405.311 438.233 405.487C437.193 406.013 436.256 406.78 435.146 407.116C434.036 407.452 432.623 407.194 432.096 406.122C434.831 405.109 437.446 403.743 439.861 402.065C439.644 400.491 437.528 400.351 436.028 400.637C434.492 400.93 432.956 401.222 431.42 401.514ZM409.075 360.599C409.52 360.094 410.165 359.847 410.784 359.618C412.487 358.987 414.191 358.356 415.894 357.724C416.78 357.396 416.562 355.861 415.728 355.412C414.892 354.963 413.883 355.244 412.985 355.532C411.036 356.158 409.088 356.783 407.14 357.409C406.886 357.491 406.618 357.58 406.44 357.786C406.032 358.257 406.306 358.998 406.596 359.556C407.368 361.043 408.14 362.53 408.912 364.017C409.002 364.191 409.103 364.375 409.274 364.459C409.482 364.56 409.724 364.483 409.941 364.405C412.312 363.551 414.683 362.696 417.054 361.842C417.62 361.638 418.299 361.265 418.251 360.643C418.186 359.794 416.993 359.788 416.215 360.045C413.776 360.852 411.337 361.66 408.898 362.466C408.468 361.948 408.631 361.103 409.075 360.599ZM439.386 263.595C437.287 264.832 435.187 266.069 433.088 267.306C432.835 267.454 432.57 267.616 432.432 267.882C432.066 268.584 432.789 269.347 433.427 269.793C434.733 270.705 436.039 271.618 437.344 272.53C437.601 272.709 437.878 272.895 438.188 272.899C438.891 272.905 439.253 272.042 439.434 271.334C440.013 269.059 440.593 266.784 441.172 264.508C441.244 264.223 441.316 263.91 441.198 263.641C440.914 262.993 439.981 263.244 439.386 263.595ZM411.746 365.694C411.238 365.83 410.661 366.028 410.47 366.536C410.329 366.915 410.458 367.342 410.623 367.711C411.048 368.657 411.721 369.481 412.55 370.07C414.752 369.194 416.955 368.317 419.158 367.441C420.104 367.063 421.224 366.43 421.185 365.374C421.155 364.618 420.471 364.033 419.76 363.887C419.049 363.741 418.318 363.931 417.616 364.119C415.659 364.644 413.702 365.169 411.746 365.694ZM379.831 283.084C380.602 284.652 382.508 285.106 384.176 285.388C386.837 285.837 389.498 286.287 392.159 286.737C392.205 285.162 390.647 284.115 389.263 283.483C386.726 282.325 384.079 281.43 381.373 280.817C381.081 280.751 380.777 280.688 380.486 280.761C379.62 280.979 379.425 282.255 379.831 283.084ZM369.967 281.896C370.175 281.814 370.387 281.73 370.567 281.593C371.36 280.984 371.119 279.555 370.309 278.97C369.498 278.385 368.402 278.464 367.462 278.772C366.521 279.08 365.644 279.59 364.683 279.816C363.385 280.122 361.687 280.108 361.189 281.396C360.764 282.494 361.738 283.74 362.848 283.995C363.959 284.249 365.097 283.822 366.16 283.401C367.429 282.9 368.698 282.399 369.967 281.896ZM375.075 291.812C376.148 291.082 375.652 289.162 374.511 288.555C373.371 287.948 372.001 288.232 370.753 288.529C369.437 288.843 368.031 289.211 367.134 290.263C366.238 291.316 366.239 293.288 367.462 293.884C369.125 294.694 370.684 292.407 372.498 292.124C373.366 291.989 374.341 292.311 375.075 291.812ZM412.715 353.347C413.074 353.221 413.455 353.081 413.686 352.767C413.944 352.419 413.953 351.921 413.808 351.508C413.466 350.542 412.397 350.027 411.409 350.046C410.421 350.065 409.49 350.503 408.593 350.933C407.449 351.48 406.306 352.027 405.163 352.573C404.534 352.875 403.823 353.283 403.719 353.997C403.613 354.721 404.252 355.379 404.94 355.532C405.628 355.686 406.336 355.471 407.008 355.255C408.917 354.642 410.82 354.006 412.715 353.347ZM417.866 378.587C420.329 377.507 422.791 376.428 425.254 375.349C425.486 375.247 425.728 375.139 425.897 374.944C426.397 374.366 425.94 373.36 425.243 373.082C424.547 372.805 423.768 373.019 423.051 373.236C421.387 373.738 419.724 374.241 418.059 374.743C417.139 375.021 416.109 375.395 415.721 376.308C415.191 377.558 416.659 379.117 417.866 378.587ZM434.489 393.553C435.472 393.158 435.113 391.429 434.136 391.015C433.16 390.601 432.063 391.026 431.074 391.406C429.135 392.151 427.137 392.726 425.106 393.127C424.398 394.12 425.261 395.642 426.403 395.979C427.545 396.317 428.75 395.864 429.857 395.419C431.401 394.797 432.945 394.175 434.489 393.553ZM382.068 278.507C384.052 279.049 386.036 279.592 388.021 280.134C388.775 280.34 389.94 280.225 389.885 279.412C386.458 276.942 382.516 275.255 378.413 274.503C378.195 274.463 377.966 274.427 377.759 274.506C377.047 274.775 377.318 275.925 377.854 276.482C378.963 277.636 380.553 278.093 382.068 278.507ZM389.565 270.516C390.267 272.275 390.968 274.034 391.67 275.793C392.093 276.853 392.567 277.978 393.5 278.588C394.432 279.197 395.949 278.939 396.255 277.837C396.487 276.997 395.943 276.158 395.425 275.47C393.449 272.843 391.415 270.265 389.324 267.738C388.86 268.574 389.209 269.625 389.565 270.516ZM386.167 273.821C386.539 273.955 386.992 274.076 387.294 273.811C387.645 273.5 387.518 272.9 387.279 272.49C386.409 270.997 384.65 270.406 383.039 269.929C380.873 269.288 378.707 268.647 376.541 268.004C375.867 267.806 375.361 268.829 375.676 269.481C375.991 270.132 376.716 270.425 377.377 270.663C380.307 271.715 383.237 272.769 386.167 273.821ZM415.128 370.808C414.52 371 413.858 371.234 413.525 371.799C412.933 372.804 413.798 374.115 414.816 374.631C417.113 372.682 420.04 371.556 423.001 371.481C424.008 371.456 424.096 369.696 423.242 369.138C422.387 368.58 421.279 368.868 420.314 369.173C418.586 369.718 416.857 370.263 415.128 370.808ZM405.508 343.315C404.111 343.7 402.714 344.085 401.318 344.47C400.037 344.823 398.432 345.697 398.739 347.04C399.001 348.184 400.533 348.444 401.562 347.962C402.59 347.481 403.375 346.546 404.399 346.054C406.073 345.249 408.429 345.542 409.367 343.889C408.568 342.705 406.851 342.945 405.508 343.315ZM353.165 266.316C352.897 266.437 352.621 266.575 352.444 266.818C351.987 267.443 352.485 268.416 353.191 268.691C353.898 268.966 354.683 268.768 355.415 268.585C357.879 267.97 360.387 267.544 362.911 267.312C363.156 265.869 361.347 265.06 359.941 265.002C357.626 264.906 355.292 265.359 353.165 266.316ZM394.006 322.293C394.73 321.494 394.321 319.713 393.286 319.923C390.541 320.481 387.896 321.564 385.52 323.099C384.964 324.278 386.501 325.501 387.745 325.297C388.99 325.092 389.99 324.14 391.155 323.643C392.132 323.226 393.282 323.093 394.006 322.293ZM395.509 296.441C395.184 296.013 394.664 295.81 394.171 295.626C391.772 294.731 389.374 293.838 386.975 292.943C386.319 292.698 385.584 292.455 384.945 292.747C384.307 293.039 384.052 294.141 384.677 294.464C387.75 296.048 391.017 297.222 394.372 297.951C394.721 298.026 395.112 298.09 395.413 297.891C395.855 297.597 395.834 296.87 395.509 296.441ZM384.217 267.022C384.56 267.234 385.009 266.834 385.018 266.42C385.027 266.005 384.759 265.645 384.49 265.339C381.914 262.408 378.133 261.04 374.517 259.78C373.599 259.46 372.257 259.352 371.99 260.321C376.171 262.337 380.254 264.575 384.217 267.022ZM437.561 397.035C437.344 396.25 436.549 395.761 435.769 395.679C434.989 395.597 434.215 395.838 433.466 396.078C432.157 396.495 430.849 396.912 429.54 397.329C428.636 397.617 427.538 398.183 427.613 399.166C427.675 399.966 428.569 400.444 429.334 400.367C430.1 400.29 430.775 399.839 431.469 399.493C432.982 398.737 434.709 398.455 436.372 398.691C437.149 398.801 437.777 397.821 437.561 397.035ZM355.502 272.293C355.491 273.032 356.045 273.735 356.741 273.869C357.191 273.955 357.651 273.826 358.092 273.698C360.639 272.958 363.186 272.218 365.733 271.478C365.773 270.732 365.155 270.087 364.468 269.87C363.782 269.654 363.045 269.765 362.337 269.878C360.487 270.171 358.637 270.464 356.787 270.758C356.087 270.869 355.513 271.555 355.502 272.293ZM397.57 325.405C397.671 324.712 397.017 324.1 396.349 324.012C395.682 323.925 395.026 324.209 394.409 324.487C392.443 325.372 390.478 326.257 388.512 327.141C387.928 327.915 388.647 329.142 389.568 329.36C390.49 329.577 391.425 329.138 392.275 328.71C393.618 328.035 394.961 327.361 396.303 326.685C396.855 326.408 397.477 326.038 397.57 325.405ZM369.46 254.451C369.687 254.872 370.137 255.096 370.56 255.293C374.062 256.928 377.563 258.564 381.066 260.2C381.687 260.49 382.594 260.688 382.901 260.054C383.23 259.373 382.418 258.723 381.745 258.424C377.978 256.756 374.21 255.087 370.443 253.418C370.253 253.335 370.051 253.249 369.848 253.284C369.392 253.364 369.234 254.031 369.46 254.451ZM387.598 301.555C387.48 301.503 387.354 301.45 387.228 301.476C387.098 301.502 386.99 301.621 386.971 301.758C387.278 303.943 389.629 305.02 391.644 305.702C394.278 306.593 396.911 307.484 399.544 308.375C400.177 307.645 399.144 306.634 398.275 306.252C394.715 304.686 391.156 303.121 387.598 301.555ZM368.125 275.946C368.419 275.369 367.977 274.648 367.42 274.349C366.446 273.826 365.271 274.118 364.216 274.42C363.014 274.765 361.81 275.108 360.608 275.452C359.742 275.7 358.697 276.169 358.665 277.105C358.641 277.805 359.275 278.379 359.936 278.507C360.597 278.635 361.271 278.433 361.916 278.232C363.631 277.699 365.346 277.165 367.062 276.63C367.472 276.503 367.925 276.341 368.125 275.946ZM427.745 377.616C427.03 377.185 426.131 377.437 425.344 377.699C422.841 378.533 420.338 379.368 417.836 380.202C417.282 381.127 418.289 382.355 419.332 382.421C420.375 382.485 421.321 381.851 422.243 381.336C423.918 380.4 425.765 379.798 427.653 379.572C428.474 379.473 428.46 378.048 427.745 377.616ZM379.943 298.394C379.141 298.17 378.292 298.326 377.475 298.483C376.466 298.677 375.456 298.871 374.446 299.066C373.301 299.286 371.848 299.904 371.97 301.111C372.041 301.823 372.716 302.338 373.396 302.442C374.076 302.545 374.76 302.334 375.417 302.125C377.433 301.486 379.448 300.845 381.463 300.206C381.483 299.34 380.744 298.618 379.943 298.394ZM373.068 284.239C372.508 283.642 371.585 283.599 370.815 283.832C370.045 284.063 369.356 284.519 368.604 284.807C367.717 285.146 366.759 285.247 365.875 285.595C364.991 285.943 364.138 286.639 363.985 287.611C364.317 288.42 365.43 288.329 366.245 288.1C368.403 287.495 370.562 286.888 372.721 286.282C373.494 286.065 373.629 284.835 373.068 284.239ZM370.065 295.25C369.166 295.523 369.321 297.072 370.141 297.544C370.96 298.015 371.973 297.755 372.873 297.484C374.76 296.916 376.647 296.347 378.534 295.779C378.672 294.796 377.81 293.906 376.879 293.693C375.949 293.479 374.986 293.758 374.071 294.036C372.736 294.441 371.401 294.846 370.065 295.25ZM380.771 156.838C381.971 155.937 381.786 154.078 381.822 152.536C380.258 152.338 378.545 152.172 377.226 153.071C375.908 153.97 375.555 156.397 376.966 157.126C377.451 157.377 378.017 157.37 378.558 157.358C379.326 157.341 380.148 157.306 380.771 156.838ZM383.795 287.878C383.04 287.797 381.939 288.145 382.154 288.905C382.257 289.27 382.641 289.448 382.984 289.578C386.273 290.818 389.706 291.638 393.184 292.016C393.615 291.912 393.741 291.277 393.516 290.881C393.29 290.484 392.857 290.279 392.447 290.108C389.682 288.948 386.76 288.196 383.795 287.878ZM368.49 249.818C371.335 251.342 374.234 252.756 377.179 254.054C377.752 254.306 378.401 254.556 378.976 254.31C379.551 254.064 379.771 253.06 379.201 252.8C375.852 251.273 372.503 249.745 369.154 248.216C368.622 247.974 367.864 247.8 367.576 248.326C367.261 248.903 367.924 249.515 368.49 249.818ZM396.644 300.931C396.159 300.473 395.508 300.268 394.88 300.075C392.238 299.266 389.595 298.457 386.953 297.647C386.588 297.536 386.181 297.426 385.839 297.602C385.497 297.777 385.373 298.377 385.715 298.552C389.33 300.399 393.147 301.818 397.067 302.773C397.391 302.181 397.128 301.391 396.644 300.931ZM398.717 343.445C400.601 342.75 402.485 342.055 404.369 341.361C405.198 341.055 406.087 340.701 406.562 339.929C406.44 339.238 405.723 338.802 405.048 338.788C404.374 338.774 403.736 339.079 403.125 339.377C401.474 340.181 399.822 340.985 398.171 341.789C397.575 342.08 396.887 342.508 396.877 343.194C397.186 343.823 398.077 343.681 398.717 343.445ZM383.745 304.158C384.186 303.648 383.79 302.761 383.178 302.506C382.567 302.252 381.877 302.427 381.24 302.605C379.078 303.208 376.916 303.811 374.753 304.414C374.361 304.888 374.713 305.689 375.265 305.937C375.817 306.185 376.449 306.052 377.036 305.917C378.987 305.466 380.937 305.014 382.889 304.562C383.2 304.49 383.532 304.406 383.745 304.158ZM410.168 346.41C409.723 346.307 409.267 346.491 408.844 346.671C406.54 347.653 404.234 348.636 401.929 349.618C401.261 349.902 401.531 351.084 402.209 351.342C402.886 351.6 403.626 351.266 404.275 350.938C406.256 349.939 408.237 348.939 410.218 347.939C410.444 347.826 410.684 347.697 410.794 347.463C410.997 347.036 410.614 346.512 410.168 346.41ZM393.243 308.242C392.355 307.899 391.075 307.721 390.721 308.635C393.845 310.312 397.159 311.605 400.572 312.479C401.269 312.04 400.398 311.004 399.635 310.709C397.504 309.887 395.374 309.064 393.243 308.242ZM350.265 263.23C349.668 263.937 350.256 265.276 351.159 265.269C353.222 263.864 355.632 263.017 358.09 262.833C357.311 261.817 355.961 261.431 354.718 261.533C353.473 261.635 352.3 262.151 351.152 262.662C350.829 262.805 350.496 262.956 350.265 263.23ZM400.752 316.011C401.428 316.181 402.492 315.983 402.324 315.28C399.501 313.952 396.527 312.976 393.484 312.378C393.148 312.851 393.35 313.565 393.77 313.957C394.19 314.349 394.763 314.501 395.311 314.639C397.125 315.096 398.938 315.554 400.752 316.011ZM398.617 319.697C400.198 320.207 401.834 320.528 403.484 320.652C403.814 320.197 403.625 319.501 403.221 319.115C402.817 318.73 402.263 318.577 401.732 318.436C400.049 317.989 398.366 317.543 396.683 317.097C396.071 318.193 397.455 319.322 398.617 319.697ZM434.602 413.243C434.225 414.208 434.715 415.557 435.706 415.691C436.94 414.457 438 413.033 438.839 411.479C438.362 410.941 437.518 411.071 436.857 411.325C435.919 411.685 434.979 412.278 434.602 413.243ZM408.246 333.107C407.443 332.327 406.451 331.76 405.389 331.474C405.218 333.043 406.082 334.678 407.445 335.367C407.772 335.532 408.159 335.645 408.493 335.497C409.337 335.123 408.917 333.758 408.246 333.107ZM404.296 323.245C403.744 322.83 403.03 322.75 402.351 322.684C401.517 322.603 400.681 322.522 399.846 322.441C399.441 323.457 400.587 324.446 401.632 324.604C402.675 324.764 403.818 324.546 404.73 325.099C405.143 324.535 404.847 323.66 404.296 323.245ZM410.769 342.384C411.097 342.675 411.5 342.935 411.928 342.886C412.078 340.749 410.694 338.76 408.97 337.594C408.767 339.367 409.465 341.225 410.769 342.384ZM405.418 327.979C404.451 327.423 403.313 327.194 402.217 327.337C402.615 328.451 403.561 329.333 404.667 329.622C405.258 329.777 405.997 329.708 406.319 329.168C406.642 328.628 406.005 327.735 405.506 328.1M351.255 258.742C350.338 258.912 349.478 259.397 348.841 260.105C349.98 260.439 351.279 260.102 352.133 259.248C351.922 258.953 351.595 258.751 351.246 258.701" fill="#00160A"/>
<path fill-rule="evenodd" clip-rule="evenodd" d="M331.586 353.808C340.938 344.442 354.065 345.763 363.247 356.04C371.231 364.982 369.333 376.793 360.266 386.7C356.845 390.4 349.978 392.854 345.009 392.253C340.802 391.817 334.251 388.585 330.361 385.605C328.56 384.225 326.912 381.382 325.358 377.061L325.13 376.416C322.369 368.437 324.234 360.004 330.486 354.712L330.779 354.469L330.845 354.375C330.899 354.304 330.961 354.238 331.033 354.176L331.146 354.085L331.274 354L331.54 353.86L331.586 353.808ZM347.844 385.98L345.015 389.134L345.327 389.161C348.226 389.38 351.064 388.907 353.643 387.764L353.787 387.698L353.587 387.686C351.804 387.553 349.921 386.986 347.964 386.038L347.844 385.98ZM339.591 380.055L339.326 379.803L339.047 380.086C337.951 381.199 336.836 382.341 335.696 383.518L334.405 384.854C334.771 385.131 335.151 385.402 335.547 385.667C337.336 386.882 339.268 387.804 341.267 388.403L341.696 388.526L343.764 386.256L345.311 384.549L345.21 384.486C343.265 383.241 341.354 381.712 339.591 380.055ZM353.083 380.135L349.712 383.896L349.882 383.972C352.506 385.119 354.838 385.337 356.846 384.492L357.057 384.398L356.854 384.158C355.84 382.975 354.749 381.802 353.556 380.604L353.083 380.135ZM332.77 372.198L332.172 372.811C331.31 373.685 330.441 374.553 329.563 375.416L328.183 376.761L328.299 377.049C329.233 379.294 330.535 381.248 332.23 382.957L332.291 383.017L332.484 382.814C333.712 381.515 334.98 380.198 336.302 378.851L337.33 377.807L337.05 377.514C335.513 375.884 334.198 374.287 333.091 372.674L332.77 372.198ZM358.591 373.991L354.911 378.096L354.949 378.132C356.36 379.536 357.651 380.914 358.849 382.306L359.212 382.734L359.223 382.72C360.479 380.942 360.263 378.044 358.754 374.38L358.591 373.991ZM345.717 373.435L345.444 373.701C344.186 374.932 342.91 376.196 341.61 377.499L341.242 377.867L341.585 378.183C343.383 379.821 345.107 381.198 346.829 382.307L347.155 382.513L349.464 379.957L351.054 378.191L350.529 377.704C349.576 376.827 348.545 375.907 347.25 374.773L345.717 373.435ZM365.375 366.426L360.283 372.103L360.449 372.436C360.729 373.012 361.004 373.596 361.274 374.19L361.675 375.088L362.048 375.953C362.429 376.789 362.691 377.622 362.831 378.443L362.852 378.582L363.004 378.298C365.064 374.36 365.909 370.307 365.392 366.542L365.375 366.426ZM354.176 366.363L353.915 366.002L352.987 366.815L350.4 369.044L349.937 369.45C349.461 369.869 349.033 370.252 348.639 370.617L348.181 371.046L347.707 371.502L348.774 372.429C349.964 373.47 351 374.395 351.969 375.287L352.891 376.145L355.849 372.84L357.256 371.261L357.246 371.24C356.361 369.613 355.31 367.951 354.176 366.363ZM338.417 366.696L338.195 366.469L338.126 366.547C337.261 367.491 336.387 368.429 335.507 369.359L334.629 370.279L334.812 370.571C335.882 372.242 337.205 373.873 338.749 375.455L339.139 375.85L339.21 375.92L339.33 375.8C340.222 374.912 341.137 374.009 342.082 373.083L343.605 371.596L343.395 371.413C341.68 369.891 340.026 368.322 338.417 366.696ZM329.008 360.672L328.924 360.818C326.83 364.489 326.183 369.053 327.156 373.4L327.243 373.772L327.287 373.949L327.726 373.523C328.644 372.621 329.555 371.711 330.46 370.793L331.38 369.85L331.292 369.682C329.785 366.759 328.996 363.789 329.008 360.74V360.672ZM345.645 357.925L344.553 359.232C343.313 360.703 342.056 362.158 340.781 363.598L340.03 364.439L340.218 364.628C341.702 366.124 343.24 367.582 344.845 369.014L345.592 369.673L346.305 368.989C346.763 368.555 347.253 368.109 347.808 367.618L348.718 366.823L350.855 364.987C351.241 364.654 351.586 364.355 351.906 364.073L352.219 363.796L352.068 363.611C351.334 362.724 350.644 361.962 350.07 361.402L349.902 361.24C348.737 360.145 347.463 359.142 346.044 358.188L345.645 357.925ZM361.078 357.765L360.964 357.973C359.783 360.06 358.157 362.014 355.945 364.14L355.76 364.316L355.826 364.411C356.793 365.827 357.709 367.308 358.577 368.853L358.892 369.423L361.368 366.636L364.498 363.093L364.425 362.906C363.706 361.123 362.637 359.449 361.214 357.909L361.078 357.765ZM331.781 359.351L331.769 359.471C331.514 362.284 332.043 365.051 333.281 367.773L333.313 367.841L333.643 367.495C334.372 366.725 335.099 365.948 335.819 365.166L336.369 364.565L336.145 364.327C334.877 362.964 333.633 361.558 332.403 360.098L331.781 359.351ZM333.011 356.24L332.822 356.335L332.871 356.395C334.546 358.479 336.253 360.452 338.019 362.345L338.2 362.537L338.937 361.713C340.23 360.252 341.507 358.774 342.764 357.279L343.376 356.545L343.31 356.508C342.999 356.332 342.68 356.155 342.353 355.978L341.857 355.713C338.941 354.221 336.787 354.386 333.305 356.093L333.011 356.24ZM351.242 350.918L350.168 352.306C349.443 353.235 348.711 354.16 347.973 355.077L347.456 355.716L347.587 355.803C349.541 357.116 351.204 358.541 352.572 360.121L352.883 360.488C353.185 360.854 353.483 361.227 353.779 361.604L354.117 362.043L354.164 361.999C356.342 359.882 357.881 357.953 358.937 355.881L358.967 355.818L358.687 355.588C355.863 353.273 353.795 351.898 351.605 351.053L351.242 350.918ZM346.923 350.121C344.157 350.101 341.637 350.617 339.311 351.676L339.179 351.737L339.41 351.768C339.92 351.847 340.419 351.981 340.911 352.175L341.157 352.276C342.474 352.881 343.685 353.487 344.822 354.117L345.201 354.331L345.945 353.415C346.703 352.474 347.454 351.528 348.198 350.574L348.464 350.229L348.141 350.19C347.871 350.162 347.601 350.142 347.329 350.131L346.923 350.121Z" fill="#FFB61D"/>
<path fill-rule="evenodd" clip-rule="evenodd" d="M393.954 152.623C394.829 150.154 397.978 149.135 400.302 150.164C402.625 151.193 404.067 153.765 404.432 156.37C404.796 158.975 404.243 161.622 403.532 164.147C402.883 166.45 402.101 168.712 401.19 170.915C401.105 171.121 400.992 171.35 400.783 171.399C400.561 171.451 400.356 171.27 400.196 171.102C396.248 166.931 393.867 161.187 393.66 155.332C393.628 154.418 393.65 153.481 393.954 152.623ZM400.779 153.226C400.132 152.646 399.295 152.268 398.442 152.295C396.451 152.358 395.062 154.622 395.106 156.698C395.15 158.774 396.211 160.659 397.24 162.438C397.979 163.711 398.716 164.984 399.453 166.258C399.705 166.691 400.199 167.186 400.59 166.886C400.748 166.765 400.809 166.552 400.86 166.355C401.163 165.199 401.464 164.042 401.766 162.885C402.198 161.231 402.632 159.551 402.605 157.837C402.579 156.123 402.028 154.341 400.779 153.226Z" fill="#FFB61D"/>
<path fill-rule="evenodd" clip-rule="evenodd" d="M399.477 159.873C398.992 160.015 398.463 159.988 397.993 159.797C397.082 159.427 396.452 158.41 396.505 157.391C396.558 156.373 397.289 155.433 398.232 155.167C399.663 154.765 401.274 156.138 401.178 157.68C401.117 158.68 400.402 159.6 399.477 159.873Z" fill="#FFB61D"/>
</svg>
