<svg width="718" height="534" viewBox="0 0 718 534" fill="none" xmlns="http://www.w3.org/2000/svg">
<g clip-path="url(#clip0_8_4)">
<path d="M661.469 129.808C579.977 16.2658 407.83 -29.7918 238.529 19.8133C149.024 46.0381 62.7255 98.5832 19.9579 200.328C-56.4938 382.207 104.026 440.294 208.989 458.807C259.743 467.759 307.545 482.797 351.226 503.27C429.814 540.104 568.919 572.742 673.814 419.313C749.841 308.108 715.75 205.438 661.469 129.808Z" fill="white"/>
<path d="M189.008 152.272C188.78 150.467 188.319 148.7 187.636 147.014C187.549 146.695 187.397 146.398 187.189 146.142C186.981 145.885 186.721 145.675 186.428 145.524C186.035 145.422 185.624 145.417 185.229 145.511L179.073 146.454C178.558 146.477 178.065 146.669 177.669 147C176.867 147.844 177.657 149.204 177.632 150.368C177.604 151.678 176.442 152.741 175.182 153.093C173.895 153.353 172.568 153.337 171.289 153.045L162.682 151.705C165.217 150.895 167.473 149.387 169.193 147.355C170.326 146.011 170.928 143.503 169.291 142.866C168.805 142.733 168.298 142.692 167.796 142.746C163.897 142.777 160.828 139.517 157.177 138.143C154.841 137.322 152.304 137.26 149.931 137.969C147.557 138.677 145.469 140.119 143.963 142.088L148.548 142.309C148.979 142.285 149.407 142.399 149.769 142.635C150.774 143.462 149.525 145.05 149.667 146.344C149.85 148.026 152.081 148.385 153.762 148.555C155.443 148.725 157.576 150.093 156.767 151.578C148.317 154.492 139.719 145.882 130.845 146.942C128.599 147.21 126.478 148.093 124.286 148.649C110.891 152.042 97.0425 142.988 83.3588 144.906C80.3167 145.425 77.3269 146.215 74.4248 147.265C72.5624 147.877 70.6198 148.539 69.2666 149.959C67.9135 151.379 67.3984 153.807 68.6804 155.292C65.147 155.583 61.5901 155.245 58.1748 154.292C59.0984 154.806 59.8667 155.56 60.3991 156.474C60.9315 157.387 61.2084 158.428 61.2007 159.486C55.6838 160.387 50.313 162.026 45.2327 164.361C46.1809 165.94 47.2883 167.417 48.5377 168.769L41.5534 173.262C43.913 173.857 45.133 177.079 43.7608 179.091C46.2075 178.001 47.7238 175.182 50.3401 174.61C52.0541 174.236 53.7982 174.938 55.4242 175.597C57.0502 176.257 58.8374 176.896 60.5206 176.401C62.2039 175.906 63.4455 173.721 62.3759 172.328C69.5706 170.227 77.0062 169.063 84.4983 168.868C85.0764 168.795 85.6625 168.907 86.1738 169.186C87.1491 169.864 86.8925 171.327 86.84 172.514C86.7874 173.702 87.7117 175.262 88.7715 174.727C87.5246 175.81 88.5906 177.848 89.7869 178.986C90.9832 180.125 92.4251 181.696 91.6927 183.177C91.5015 183.563 91.1773 183.872 90.9934 184.262C90.4505 185.414 91.3125 186.756 92.3292 187.52C93.3459 188.285 94.5913 188.819 95.2975 189.878C96.0038 190.936 95.683 192.789 94.4201 192.937L90.8306 188.374C89.6041 189.647 88.7634 191.242 88.4057 192.975C92.2122 196.09 92.7847 202.432 89.598 206.181C87.9695 208.096 85.6536 209.26 83.6324 210.754C81.6111 212.249 79.7408 214.376 79.7459 216.892C79.7547 221.238 79.4001 225.276 81.0266 229.305C84.0259 236.735 87.4888 243.969 91.3947 250.963C92.4204 252.8 93.746 254.813 95.8238 255.13C93.1978 248.729 90.8339 242.228 88.7321 235.628C90.101 235.633 91.6831 235.742 92.4856 236.853C93.1501 237.772 93.0074 239.023 93.2139 240.139C93.4765 241.22 93.9144 242.251 94.5103 243.19L107.05 265.556C108.09 267.41 109.282 269.4 111.269 270.151C112.539 270.631 114.009 270.54 115.178 271.231C116.094 271.773 116.712 272.735 117.646 273.245C120.287 274.688 123.961 271.921 126.429 273.644C127.135 274.136 127.584 274.919 128.235 275.483C130.515 277.46 134.255 276.137 136.887 277.612C138.583 278.562 139.462 280.463 140.367 282.186C142.633 286.501 146.301 290.728 151.158 291.072C152.683 291.179 154.242 290.89 155.733 291.23C157.224 291.569 158.692 292.873 158.453 294.385C158.043 296.978 159.322 299.818 158.978 302.42C158.353 307.161 151.636 309.245 151.059 313.992C150.933 315.032 151.131 316.104 150.883 317.122C150.58 318.369 149.645 319.384 149.313 320.623C148.683 322.972 150.364 325.31 152.21 326.89C154.056 328.47 156.259 329.833 157.268 332.045C158.335 334.383 157.811 337.109 158.158 339.656C158.915 345.216 163.712 349.338 168.648 351.996C170.152 352.806 171.767 353.59 172.741 354.995C174.011 356.828 173.885 359.246 174.309 361.436C175.348 366.802 179.859 371.223 179.987 376.687C180.078 380.57 177.922 384.094 176.634 387.758C175.427 391.269 174.99 394.999 175.353 398.694C175.716 402.39 176.872 405.963 178.74 409.171C179.703 410.8 180.856 412.336 181.537 414.101C182.753 417.253 182.359 420.835 183.48 424.021C184.963 428.234 189.037 431.713 188.647 436.163C190.496 440.008 194.58 441.898 198.687 443.043L206.048 445.094C207.457 445.487 208.93 445.883 210.365 445.598C211.8 445.314 213.169 444.121 213.132 442.656C209.523 441.841 205.798 440.975 202.822 438.773C199.847 436.57 197.809 432.649 198.938 429.121C199.461 427.485 200.575 425.595 199.516 424.244C198.91 423.47 197.801 423.268 197.118 422.561C196.051 421.46 196.417 419.61 197.184 418.281C197.951 416.953 199.059 415.766 199.368 414.264C199.525 413.423 199.42 412.555 199.069 411.775C198.719 410.996 198.138 410.342 197.406 409.903C198.771 409.387 200.012 408.589 201.049 407.562C202.007 406.467 202.45 404.778 201.696 403.532C203.934 403.817 206.576 403.956 208.045 402.242C209.219 400.873 209.138 398.826 208.674 397.083C208.211 395.34 207.427 393.647 207.403 391.844C212.566 392.089 217.74 391.913 222.874 391.318C222.132 388.815 220.445 386.699 218.17 385.42C220.496 385.026 222.614 382.239 223.349 379.995C224.083 377.751 223.896 375.307 223.442 372.99C223.268 372.393 223.244 371.763 223.372 371.154C223.634 370.319 224.454 369.809 225.212 369.373L236.755 362.736C237.443 362.39 238.068 361.929 238.6 361.372C239.81 359.949 239.63 357.802 239.011 356.04C238.392 354.279 237.4 352.622 237.162 350.769C236.448 345.229 242.372 341.254 244.371 336.039C245.155 333.992 245.315 331.767 245.467 329.58C245.63 327.231 245.642 324.503 243.841 322.99C242.114 321.539 239.416 321.862 237.61 320.513C235.953 319.275 235.382 316.872 233.572 315.873C231.929 314.965 229.868 315.542 228.04 315.115C224.822 314.364 222.797 310.65 219.511 310.306C217.656 310.112 215.557 311.02 214.038 309.939C212.698 308.986 212.645 307.071 212.39 305.446C211.943 302.92 210.734 300.592 208.926 298.776C207.117 296.959 204.796 295.741 202.275 295.286C200.363 294.979 198.282 295.096 196.656 294.044C195.009 292.978 194.254 290.984 192.96 289.509C190.875 287.131 187.591 286.286 184.514 285.562L172.001 282.617C169.78 282.094 166.917 281.817 165.725 283.765C165.372 284.507 165.122 285.293 164.982 286.103C164.536 287.567 163.637 288.853 162.415 289.773C161.193 290.694 159.711 291.204 158.182 291.228C157.133 289.437 155.434 288.121 153.439 287.554C152.17 287.2 150.812 287.161 149.602 286.64C148.943 286.318 148.357 285.864 147.879 285.307C147.401 284.75 147.041 284.102 146.822 283.401C146.603 282.7 146.53 281.962 146.605 281.232C146.681 280.501 146.905 279.794 147.263 279.153C147.985 277.867 148.263 276.379 148.056 274.919C147.849 273.458 147.168 272.107 146.117 271.073C143.989 269.16 140.911 268.698 138.057 268.889C137.31 267.256 138.56 265.414 139.906 264.228C141.253 263.041 142.888 261.875 143.181 260.103C143.642 257.316 140.091 255.199 137.394 256.03C134.697 256.861 132.976 259.484 131.838 262.069C131.186 263.552 130.631 265.114 129.601 266.365C128.571 267.616 126.913 268.511 125.344 268.11C123.124 267.542 122.266 264.9 121.775 262.659C121.116 259.652 120.452 256.603 120.591 253.527C120.729 250.451 121.764 247.293 124.029 245.211C127.721 241.818 133.383 242.151 138.365 242.692C137.188 241.364 137.478 239.127 138.738 237.877C139.402 237.286 140.201 236.866 141.065 236.653C141.928 236.441 142.831 236.442 143.693 236.658C145.194 236.971 146.547 237.78 147.532 238.956C148.948 240.684 149.351 243.018 150.421 244.979C151.491 246.941 153.896 248.614 155.866 247.561C157.567 246.652 157.837 244.291 157.413 242.407C156.99 240.524 156.091 238.693 156.244 236.768C156.537 233.097 160.338 230.886 163.693 229.374C167.048 227.862 170.889 225.828 171.42 222.183C171.438 221.47 171.573 220.764 171.818 220.093C172.19 219.501 172.707 219.015 173.32 218.679C183.111 212.201 193.064 205.643 204.254 202.104C204.836 201.919 204.905 202.124 205.498 201.98C206.328 201.499 205.778 200.17 204.982 199.634C204.186 199.099 203.122 198.688 202.92 197.75C202.771 197.059 203.177 196.382 203.283 195.684C203.542 193.969 201.493 192.385 199.902 193.071C199.003 191.879 200.781 190.494 202.219 190.098C206.538 188.908 210.971 188.183 215.443 187.935C215.959 187.853 216.488 187.943 216.948 188.191C217.699 188.712 217.603 189.907 217.071 190.651C216.539 191.394 215.711 191.861 215.047 192.49C214.322 193.197 213.805 194.09 213.553 195.071C213.3 196.052 213.321 197.084 213.614 198.053C215.949 199.243 218.487 200.467 221.073 200.048C223.659 199.629 225.954 196.72 224.739 194.396C223.607 192.233 220.207 191.745 219.622 189.374C218.938 186.597 222.863 184.128 221.979 181.409C221.591 180.218 220.406 179.517 219.496 178.657C218.422 177.603 217.691 176.248 217.4 174.77C217.109 173.292 217.27 171.761 217.864 170.377C216.382 170.638 214.86 170.54 213.424 170.09C211.988 169.64 210.681 168.852 209.612 167.792C207.638 165.797 206.064 162.651 203.261 162.74C200.689 162.822 198.474 165.827 196.069 164.91C195.477 164.684 194.853 164.225 194.28 164.494C194.092 164.617 193.934 164.78 193.819 164.972C193.703 165.164 193.633 165.38 193.613 165.603C193.001 168.529 194.053 171.863 192.46 174.391C190.727 177.142 186.719 177.523 184.618 180.004C183.477 181.351 183.035 183.165 181.987 184.585C180.939 186.005 178.714 186.908 177.456 185.67C178.074 184.398 178.243 182.953 177.935 181.572C177.627 180.19 176.86 178.955 175.759 178.066C174.591 177.303 173.332 176.69 172.012 176.241C170.536 175.616 169.132 174.833 167.825 173.905C167.17 173.51 166.638 172.939 166.288 172.258C166.011 171.406 166.049 170.482 166.393 169.655C167.031 167.823 168.157 166.201 169.648 164.964C171.139 163.726 172.94 162.92 174.855 162.632C176.53 162.404 178.48 162.484 179.588 161.206C180.175 160.53 180.483 159.508 181.334 159.233C181.879 159.124 182.444 159.193 182.946 159.432L189.198 161.635C189.895 161.951 190.663 162.078 191.425 162.004C191.803 161.953 192.147 161.761 192.389 161.466C192.631 161.172 192.753 160.796 192.731 160.415C192.531 159.376 190.933 158.877 191.079 157.828C191.16 157.489 191.342 157.182 191.602 156.948C193.858 154.543 196.617 152.668 199.682 151.456C202.747 150.244 206.041 149.726 209.33 149.938C210.119 151.236 208.871 152.772 207.832 153.88C206.794 154.988 205.96 156.967 207.215 157.82C207.73 158.083 208.302 158.212 208.88 158.195C210.419 158.404 211.915 158.858 213.311 159.541C215.471 160.482 217.59 161.512 219.668 162.631C219.484 161.259 219.309 159.815 219.828 158.532C220.347 157.25 221.823 156.244 223.112 156.743C224.354 157.225 224.991 158.871 226.314 159.022C228.08 159.224 228.776 156.612 228.039 154.994C227.301 153.375 225.842 152.02 225.72 150.245C225.638 149.048 226.093 147.563 225.137 146.838C224.798 146.621 224.412 146.485 224.01 146.443L200.16 142.048C198.744 141.787 196.698 141.987 196.635 143.428C196.6 144.232 197.317 145.027 197 145.767C196.66 146.556 195.546 146.483 194.735 146.762C193.476 147.196 192.844 148.692 192.965 150.02C193.187 151.339 193.697 152.592 194.459 153.69C192.908 153.041 190.559 152.921 189.008 152.272Z" fill="#3F3D56"/>
<path d="M169.978 132C168.474 131.502 166.853 131.479 165.335 131.934C163.818 132.389 162.477 133.3 161.494 134.544C161.101 135.062 160.771 135.776 161.1 136.336C161.571 137.14 162.772 136.822 163.658 136.535C164.959 136.069 166.376 136.036 167.698 136.438C168.53 136.724 169.273 137.229 170.108 137.504C170.515 137.675 170.96 137.731 171.396 137.667C171.832 137.603 172.243 137.422 172.583 137.142C173.156 136.557 173.192 135.647 173.193 134.828C173.233 134.553 173.211 134.274 173.129 134.009C173.047 133.744 172.907 133.501 172.72 133.298C172.385 133.104 172.01 132.992 171.624 132.973C170.76 132.813 169.979 132.356 169.415 131.681" fill="#3F3D56"/>
<path d="M178.577 129.603C178.241 129.584 177.905 129.653 177.603 129.802C177.3 129.951 177.041 130.176 176.851 130.454C176.66 130.732 176.544 131.055 176.514 131.391C176.484 131.727 176.54 132.065 176.679 132.373C177.712 132.656 178.792 132.726 179.854 132.581C180.383 132.498 180.876 132.261 181.271 131.898C181.666 131.536 181.945 131.064 182.073 130.543C180.823 130.771 179.533 130.524 178.455 129.852" fill="#3F3D56"/>
<path d="M207.431 125.599C204.618 126.198 201.885 127.127 199.289 128.368C200.513 128.839 201.553 129.691 202.256 130.799C202.96 131.906 203.289 133.211 203.196 134.52C203.086 135.023 203.099 135.544 203.233 136.041C203.532 136.767 204.399 137.039 205.161 137.225C206.529 137.642 207.958 137.825 209.388 137.766C210.103 137.728 210.797 137.513 211.408 137.139C212.019 136.765 212.527 136.245 212.887 135.625C213.094 135.036 213.337 134.461 213.614 133.903C215.44 131.118 220.864 134.485 222.825 131.794C223.515 130.846 223.452 129.419 224.353 128.668C224.818 128.34 225.358 128.134 225.923 128.068C229.865 127.283 233.848 126.715 237.852 126.367C239.749 126.201 242.222 125.519 242.238 123.612C235.092 122.207 227.682 123.205 221.16 126.451C218.81 127.63 215.703 130.108 213.44 128.546C212.592 127.961 212.634 126.386 211.468 125.729C210.275 125.056 208.697 125.33 207.431 125.599Z" fill="#3F3D56"/>
<path d="M230.802 129.975L234.157 130.62C233.539 130.593 232.923 130.698 232.349 130.928C231.775 131.158 231.257 131.508 230.829 131.954C230.401 132.4 230.073 132.933 229.867 133.516C229.66 134.1 229.581 134.721 229.633 135.337C232.775 136.388 236.2 135.366 239.509 135.505C242.818 135.645 246.668 138.012 246.104 141.28C245.933 142.268 245.363 143.255 245.659 144.213C245.867 144.884 246.458 145.36 246.792 145.979C247.487 147.267 246.932 148.897 246.053 150.068C245.175 151.239 243.995 152.174 243.224 153.418C241.307 156.514 242.396 160.516 243.538 163.975C243.868 165.281 244.478 166.501 245.325 167.548C247.017 169.35 249.775 169.506 252.244 169.542C254.042 169.569 256.101 169.48 257.237 168.085C258.721 166.265 257.684 163.425 258.661 161.288C259.548 159.348 261.809 158.515 263.857 157.925C267.609 156.843 271.433 155.924 274.981 154.29C279.386 152.261 283.503 149.1 288.344 148.839C289.703 148.765 291.095 148.926 292.403 148.553C293.711 148.181 294.954 147.048 294.855 145.69C294.771 144.529 293.79 143.677 293.024 142.802C292.257 141.927 291.655 140.581 292.36 139.656L305.05 137.282C304.151 134.828 303.45 131.595 305.517 129.997C306.263 129.42 307.262 129.19 307.897 128.493C308.979 127.305 308.435 125.259 307.185 124.249C305.936 123.239 304.247 123.004 302.646 122.871C297.082 122.408 291.485 122.714 285.91 123.02C275.011 123.618 264.113 124.216 253.214 124.815C251.02 124.935 248.487 124.751 246.475 125.501C244.771 126.135 243.56 127.3 241.612 127.709C238.015 128.464 234.057 127.953 230.802 129.975Z" fill="#3F3D56"/>
<path d="M290.9 156.525C290.559 156.471 290.209 156.55 289.924 156.747C289.735 156.954 289.623 157.22 289.606 157.5C289.389 158.737 289.647 160.01 290.328 161.064C290.675 161.581 291.154 161.996 291.715 162.265C292.276 162.535 292.899 162.649 293.519 162.595C295.029 162.403 296.142 161.112 297.531 160.483C299.671 159.513 308.761 158.002 302.473 154.6C300.306 153.428 298.906 154.463 297.198 155.235C295.255 156.23 293.078 156.676 290.9 156.525Z" fill="#3F3D56"/>
<path d="M345.974 128.055C345.239 128.355 344.625 128.89 344.227 129.577C344.043 129.926 344.001 130.332 344.108 130.711C344.215 131.09 344.463 131.414 344.802 131.615C345.076 131.714 345.367 131.761 345.659 131.751L348.644 131.84C349.912 131.878 351.496 132.149 351.837 133.372C352.09 134.281 351.524 135.448 352.207 136.098C352.501 136.325 352.853 136.463 353.223 136.494C354.206 136.747 355.233 136.781 356.231 136.592C358.403 136.008 357.262 134.681 357.946 133.499C358.992 131.69 358.811 132.785 360.656 131.749C362.018 130.983 363.778 129.595 362.641 127.644C360.664 124.251 348.891 126.597 345.974 128.055Z" fill="#3F3D56"/>
<path d="M404.897 126.349L403.163 126.581C399.254 127.103 395.323 127.63 391.558 128.806C393.188 129.451 394.897 129.871 396.64 130.054C397.6 130.101 398.553 130.237 399.487 130.459C401.15 130.955 402.826 132.235 404.433 131.579C405.429 131.173 405.754 130.134 406.579 129.584C407.149 129.204 409.31 128.589 409.551 128.205C411.504 125.104 406.398 126.149 404.897 126.349Z" fill="#3F3D56"/>
<path d="M412.509 134.238C410.193 135.534 408.045 137.109 406.111 138.929C405.297 139.695 404.465 140.649 404.539 141.765C404.637 143.25 406.216 144.111 407.584 144.691L413.126 147.04C413.798 146.091 413.183 144.782 412.488 143.849C411.793 142.917 410.968 141.838 411.275 140.716C411.625 139.436 413.184 139 414.492 138.779C416.622 138.42 422.368 138.449 421.678 135.011C420.864 130.961 414.647 133.041 412.509 134.238Z" fill="#3F3D56"/>
<path d="M411.394 363.44C410.867 364.969 410.817 366.771 411.729 368.106C412.753 369.604 414.803 370.163 416.576 369.783C418.341 369.312 419.915 368.299 421.075 366.886C422.136 365.702 423.009 364.362 423.663 362.912C424.576 360.653 425.22 358.294 425.582 355.884L427.302 346.839C427.687 344.818 427.672 338.62 423.961 340.639C422.947 341.191 420.6 345.546 419.538 346.781C417.623 349.007 417.369 351.167 416.362 353.864C415.099 357.242 412.561 360.057 411.394 363.44Z" fill="#3F3D56"/>
<path d="M607.389 409.728C606.175 409.253 604.996 408.692 603.863 408.047C602.726 411.175 602.122 414.473 602.075 417.801L610.384 413.094C611.634 412.386 613.051 411.402 613.024 409.964C613.035 409.786 612.998 409.609 612.918 409.451C612.837 409.292 612.715 409.159 612.565 409.064C612.38 408.989 612.179 408.966 611.982 408.995C610.75 409.098 609.627 409.705 608.464 410.127C607.302 410.549 605.943 410.772 604.877 410.146" fill="#3F3D56"/>
<path d="M651.22 412.523C650.308 412.771 649.417 413.091 648.555 413.48C646.649 414.451 645.351 416.296 643.636 417.576C641.994 418.8 640.017 419.472 638.077 420.126C637.506 420.631 637.768 421.648 638.388 422.092C639.054 422.472 639.818 422.644 640.582 422.586C642.598 422.631 644.722 422.65 646.488 421.675C647.482 421.029 648.413 420.289 649.268 419.466C651.332 417.741 653.812 416.603 656.266 415.504C657.159 415.166 657.985 414.671 658.705 414.043C660.247 412.522 660.355 410.175 658.132 409.658C656.335 409.239 652.931 411.968 651.22 412.523Z" fill="#3F3D56"/>
<path d="M670.586 399.856C670.686 398.81 670.547 397.754 670.18 396.769C669.812 395.784 669.226 394.895 668.465 394.17C668.443 396.264 668.379 398.495 667.203 400.227C666.365 401.461 665.05 402.295 664.132 403.47C663.214 404.645 662.806 406.508 663.883 407.54C664.572 408.064 665.41 408.354 666.276 408.365C668.42 408.617 670.902 408.758 672.405 407.207C673.226 406.361 673.626 405.107 674.627 404.484C675 404.328 675.333 404.089 675.601 403.786C676.015 403.128 675.358 402.261 674.618 402.024C673.879 401.787 673.064 401.898 672.321 401.673C671.578 401.448 670.897 400.612 671.278 399.934" fill="#3F3D56"/>
<path d="M636.166 323.071C635.041 323.345 633.876 323.414 632.727 323.274C630.818 322.923 629.332 321.483 627.791 320.301C624.128 317.508 619.674 315.95 615.071 315.851C610.883 315.772 606.656 316.908 602.543 316.115C602.812 317.612 604.091 318.734 605.455 319.402C606.82 320.069 608.326 320.404 609.697 321.058C611.893 322.115 613.635 323.929 614.603 326.168C615.045 327.2 615.323 328.323 615.991 329.225C617.359 331.067 619.95 331.471 622.238 331.32C625.22 331.124 628.334 330.265 631.108 331.378C633.231 332.229 634.75 334.089 636.522 335.535C638.294 336.981 640.79 338.054 642.825 337.011C640.711 336.326 638.871 334.982 637.574 333.176C636.278 331.37 635.591 329.196 635.615 326.972C637.611 327.156 643.359 327.085 643.049 323.69C642.787 320.812 637.88 322.761 636.166 323.071Z" fill="#3F3D56"/>
<path d="M610.059 346.483C610.413 344.537 612.351 342.819 611.747 340.935C611.33 339.633 609.822 338.99 608.456 338.958C607.09 338.926 605.748 339.333 604.383 339.371C603.494 339.324 602.603 339.337 601.715 339.409C599.004 339.855 597.333 342.7 594.779 343.712C593.225 344.327 591.48 344.21 589.864 344.635C586.197 345.6 583.877 349.07 581.313 351.868C577.171 356.368 571.774 359.519 565.823 360.912C563.738 361.396 561.496 361.705 559.838 363.061C557.644 364.857 557.103 367.935 556.615 370.731C555.266 378.451 553.204 386.03 550.456 393.369L559.164 394.482C560.82 394.694 562.535 394.901 564.131 394.41C565.29 393.972 566.388 393.386 567.397 392.667C571.276 390.257 575.617 388.688 580.139 388.063C582.419 387.749 584.81 387.692 586.95 388.54C589.09 389.389 590.926 391.314 591.105 393.611C592.031 393.323 593.017 393.292 593.959 393.521C594.901 393.751 595.762 394.232 596.452 394.914C597.816 396.305 598.709 398.089 599.005 400.016C599.234 401.209 599.464 402.638 600.57 403.139C601.471 403.547 602.506 403.107 603.493 403.028C606.841 402.76 609.619 406.669 612.91 405.996C616.439 405.274 617.305 399.981 620.749 398.921C622.726 398.312 625.5 399.053 626.447 397.211C627.281 395.588 625.616 393.714 625.788 391.897C625.999 389.659 628.636 388.709 630.669 387.754C637.677 384.461 641.002 375.017 637.606 368.052C635.594 363.925 631.635 360.677 630.904 356.143C630.342 352.655 631.715 348.588 629.494 345.842C628.364 344.446 626.451 343.675 625.779 342.008C625.355 340.959 625.525 339.769 625.298 338.661C625.07 337.552 624.104 336.393 623.012 336.681C619.839 337.514 618.827 347.327 617.128 349.711C614.546 353.336 609.246 350.948 610.059 346.483Z" fill="#3F3D56"/>
<path d="M551.419 326.779C550.335 326.475 549.151 326.175 548.112 326.61C547.074 327.045 546.467 328.572 547.301 329.329C553.823 329.075 560.385 328.822 566.852 329.709C574.303 330.731 581.677 333.262 589.161 332.518C584.886 331.255 580.541 330.245 576.147 329.494L568.821 328.093C566.855 327.681 564.87 327.373 562.872 327.172C558.692 326.827 555.529 327.933 551.419 326.779Z" fill="#3F3D56"/>
<path d="M557.949 304.034C557.407 303.989 556.737 303.95 556.456 304.416C556.189 304.861 556.495 305.45 556.351 305.949C556.155 306.631 555.262 306.806 554.559 306.713C553.856 306.62 553.096 306.397 552.473 306.737C552.157 306.953 551.919 307.266 551.796 307.628C551.673 307.991 551.67 308.384 551.789 308.748C552.043 309.471 552.455 310.129 552.995 310.673C553.916 311.835 554.966 312.89 556.124 313.816C558.366 315.472 561.403 316.271 562.815 318.676C563.014 319.142 563.32 319.555 563.708 319.88C564.386 320.31 565.27 319.983 566 319.649L568.558 318.479C569.018 318.313 569.43 318.032 569.754 317.664C570.338 316.87 569.979 315.742 569.488 314.886C568.998 314.031 568.37 313.146 568.475 312.165C568.663 310.417 570.908 309.748 571.832 308.252C572.762 306.744 572.156 304.801 572.264 303.031C572.389 300.962 573.688 298.27 571.598 296.724C569.823 295.41 568.125 296.624 566.851 298.075C564.162 301.134 562.891 304.447 557.949 304.034Z" fill="#3F3D56"/>
<path d="M573.476 273.116C574.35 274.79 576.17 275.789 577.123 277.42C578.155 279.187 578.037 281.47 579.157 283.184C580.306 284.941 582.618 285.874 583.263 287.873C583.966 290.056 582.37 292.708 583.642 294.615C583.88 294.927 584.179 295.186 584.521 295.376C584.864 295.565 585.242 295.682 585.632 295.718C586.021 295.754 586.414 295.708 586.786 295.584C587.157 295.46 587.498 295.26 587.788 294.997C588.325 294.412 588.612 293.64 588.589 292.847C588.565 292.053 588.233 291.3 587.663 290.748C586.91 290.06 585.828 289.763 585.199 288.96C584.872 288.496 584.653 287.964 584.561 287.404C584.218 285.788 584.273 284.113 584.721 282.523C584.889 282.119 584.932 281.674 584.844 281.246C584.56 280.422 583.446 280.363 582.664 279.981C580.887 279.113 580.93 276.603 581.241 274.648C581.034 275.949 576.404 273.736 575.919 272.998C574.956 271.534 575.48 268.709 575.29 267.091C573.21 268.094 572.409 271.069 573.476 273.116Z" fill="#3F3D56"/>
<path d="M526.832 298.876C525.978 297.919 524.691 296.917 523.545 297.494C522.671 297.935 522.43 299.146 522.773 300.064C523.19 300.955 523.833 301.722 524.637 302.289C527.025 304.261 529.596 306.04 531.679 308.332C535.406 312.433 537.381 317.968 541.434 321.746C542.249 322.622 543.328 323.207 544.506 323.411C545.687 323.521 547.014 322.764 547.149 321.584C547.261 320.612 546.585 319.742 545.923 319.022C544.349 317.307 542.625 315.728 541.138 313.936C540.451 313.248 540.02 312.346 539.915 311.378C539.907 310.413 540.786 309.404 541.72 309.642C540.584 309.352 539.742 307.458 538.075 307.102C536.683 306.804 536.346 307.667 534.688 306.956C531.527 305.598 529.046 301.358 526.832 298.876Z" fill="#3F3D56"/>
<path d="M601.117 205.61C600.21 205.34 599.318 205.021 598.446 204.654C596.099 203.949 592.993 205.676 593.306 208.11C593.514 209.727 595.017 210.817 595.847 212.22C597.078 214.3 596.75 216.938 596.103 219.268C595.944 219.989 595.642 220.671 595.215 221.273C594.617 221.909 593.903 222.423 593.111 222.788C589.941 224.568 587.146 226.946 584.879 229.79C584.633 230.053 584.461 230.377 584.382 230.729C584.27 231.55 585.095 232.149 585.562 232.834C586.598 234.357 585.849 236.405 585.951 238.245C585.935 238.505 585.986 238.765 586.099 239C586.212 239.234 586.382 239.437 586.595 239.587C587.219 239.905 587.959 239.365 588.298 238.751C589.421 236.714 588.575 233.443 590.682 232.461C591.081 232.275 591.564 232.197 591.83 231.846C592.252 231.29 591.845 230.466 592.058 229.802C592.379 228.804 593.743 228.759 594.789 228.803C596.591 228.879 598.393 228.638 600.113 228.093C600.787 227.933 601.4 227.577 601.875 227.072C602.505 226.284 602.449 225.165 602.323 224.165C601.693 219.176 600.115 214.354 597.674 209.959C599.524 210.196 601.538 210.401 603.135 209.435C604.03 208.894 605.102 207.277 604.659 206.176C603.957 204.435 602.69 205.901 601.117 205.61Z" fill="#3F3D56"/>
<path d="M363.83 233.047C364.051 234.237 364.269 235.489 363.88 236.635C363.49 237.78 362.266 238.738 361.109 238.387C360.211 238.114 359.693 237.211 359.056 236.522C355.511 232.69 347.515 234.909 345.325 230.169C344.432 228.234 345.039 225.917 344.43 223.875C344.045 222.695 343.28 221.676 342.254 220.978C341.229 220.281 340.001 219.944 338.763 220.021C337.635 220.184 336.536 220.512 335.503 220.995C328.58 223.771 321.313 225.591 313.9 226.405C312.491 226.491 311.098 226.745 309.749 227.162C306.705 228.266 304.626 231.092 303.146 233.975C301.666 236.858 300.573 239.979 298.589 242.541C296.503 245.233 293.581 247.118 290.855 249.157C289.805 249.834 288.931 250.752 288.304 251.834C287.713 253.049 287.746 254.462 287.792 255.812L288.349 272.213C288.421 274.323 288.511 276.508 289.454 278.396C290.632 280.754 292.958 282.298 294.572 284.38C296.219 286.52 297.077 289.165 297 291.865C296.966 292.951 296.858 294.235 297.703 294.917C298.217 295.251 298.818 295.424 299.43 295.415L321.588 297.23C325.486 297.55 329.806 298.075 332.351 301.048C333.552 302.452 334.517 304.47 336.356 304.62C337.145 304.685 337.913 304.361 338.702 304.298C340.694 304.14 342.443 305.653 343.547 307.32C345.218 309.86 345.976 312.894 345.697 315.923C345.516 317.824 344.928 319.673 344.801 321.579C344.318 328.83 350.457 335.13 350.576 342.396C350.646 346.67 348.62 350.664 346.644 354.453C349.833 359.29 347.222 365.73 348.491 371.384C349.695 376.749 354.163 380.948 355.276 386.332C355.785 388.797 355.815 391.83 357.985 393.1C358.938 393.565 359.994 393.776 361.052 393.715C367.432 393.79 373.74 392.352 379.459 389.519C382.144 388.185 384.925 386.194 385.394 383.231C385.772 380.841 384.562 378.168 385.794 376.086C387.245 373.633 390.964 373.827 393.1 371.941C396.566 368.881 393.863 363.045 395.267 358.638C396.529 354.676 400.874 352.571 403.027 349.016C403.875 347.486 404.483 345.836 404.831 344.122C405.817 340.026 406.431 335.849 406.665 331.642C406.723 329.086 406.911 326.534 407.229 323.997C409.551 309.555 423.811 299.883 428.441 286.009C428.883 284.684 429.091 282.919 427.913 282.169C427.215 281.836 426.423 281.753 425.671 281.934L415.457 283.224C414.188 283.384 412.843 283.534 411.678 283.006C410.513 282.478 409.678 281.002 410.296 279.882C412.031 276.735 408.462 272.759 406.877 269.534C402.607 260.852 397.522 252.595 391.691 244.877C391.318 244.479 391.084 243.971 391.026 243.429L393.925 243.526C392.946 240.01 391.331 236.162 387.92 234.876C385.997 234.152 383.868 234.402 381.817 234.514C375.942 234.836 369.644 233.948 363.83 233.047Z" fill="#3F3D56"/>
<path d="M381.822 153.816C383.359 155.45 385.082 157.183 387.306 157.468C391.235 157.971 394.06 153.904 395.858 150.371C395.925 151.271 396.339 152.11 397.014 152.71C397.689 153.309 398.571 153.621 399.472 153.579C400.442 153.416 401.368 153.053 402.191 152.515C409.975 148.256 418.693 145.999 427.564 145.947C427.478 145.275 427.645 144.594 428.032 144.037C428.418 143.48 428.997 143.086 429.656 142.931C431.46 142.573 433.084 144.135 433.954 145.756C434.824 147.378 435.367 149.258 436.749 150.472C438.131 151.686 440.807 151.633 441.353 149.875C441.877 148.187 440.121 146.748 438.663 145.753C437.204 144.758 435.666 142.917 436.648 141.448C444.101 139.796 451.601 138.138 459.227 137.81C460.525 137.855 461.819 137.632 463.027 137.154C464.19 136.583 465.115 135.286 464.802 134.027C463.138 134.419 461.395 134.305 459.795 133.701C458.196 133.097 456.812 132.03 455.821 130.635C466.403 129.761 477.658 129.015 487.036 134.001C488.161 136.42 482.425 138.433 483.96 140.614C484.45 141.31 485.43 141.392 486.28 141.408C492.797 141.529 499.352 141.647 505.795 140.662C508.15 140.302 510.528 139.794 512.892 140.086C516.83 140.572 520.198 143.203 524.072 144.061C525.648 144.41 527.416 144.422 528.745 143.503C530.074 142.585 530.646 140.494 529.557 139.301C533.204 135.721 539.258 136.608 544.069 138.322C548.881 140.036 553.44 142.799 558.533 143.181C562.185 143.455 565.887 142.471 569.496 143.096C571.764 143.489 573.874 144.499 576.091 145.12C580.283 146.294 584.717 146.046 589.069 146.102C600.174 146.252 611.158 148.438 621.476 152.55C622.818 152.988 624.048 153.715 625.079 154.681C626.039 155.711 626.528 157.31 625.883 158.562L615.221 157.002C616.225 158.982 618.824 159.32 620.935 160.003C623.046 160.686 625.234 163.02 623.966 164.842C621.679 164.113 619.606 166.402 618.451 168.508C617.296 170.615 615.888 173.137 613.492 173.265C611.346 173.38 608.75 171.551 607.351 173.184C609.284 175.625 610.939 178.274 612.285 181.082C613.667 183.965 614.652 187.598 612.784 190.191C612.49 190.654 612.044 191 611.523 191.17C609.997 191.557 609.006 189.688 607.912 188.556C606.534 187.128 604.449 186.724 602.582 186.055C600.715 185.386 598.748 184.069 598.602 182.089C598.511 180.857 599.161 179.712 599.64 178.573C600.444 176.654 600.796 174.575 600.667 172.497C600.563 170.826 600.095 169.088 598.896 167.92C597.697 166.752 595.628 166.382 594.341 167.451C593.74 167.95 593.259 168.749 592.479 168.779C591.102 168.831 590.044 166.426 588.935 167.247C589.065 168.122 588.884 169.015 588.423 169.769C585.116 172.65 580.034 171.431 575.77 172.449C573.742 173.03 571.8 173.879 569.996 174.973C569.322 175.262 568.747 175.745 568.346 176.36C567.814 177.396 568.401 178.722 569.339 179.411C570.334 180.022 571.452 180.404 572.613 180.53C577.811 181.516 583.086 183.042 587.191 186.385C591.295 189.729 593.987 195.256 592.688 200.391L582.436 190.583C582.825 194.701 583.046 198.831 583.099 202.972C583.165 203.781 583.054 204.594 582.774 205.355C582.043 206.972 580.062 207.516 578.326 207.872C577.843 207.964 577.385 208.157 576.982 208.439C576.579 208.721 576.24 209.084 575.988 209.506C575.735 209.929 575.574 210.399 575.516 210.888C575.459 211.377 575.505 211.872 575.651 212.342C576.268 214.354 577.806 215.924 579.214 217.487C580.622 219.051 582.008 220.828 582.192 222.926C582.376 225.023 580.796 227.387 578.698 227.241C577.108 227.131 575.928 225.705 575.25 224.261C574.572 222.816 574.168 221.207 573.149 219.98C570.064 216.266 563.136 217.857 560.372 213.897C559.668 214.697 559.179 215.664 558.953 216.706C558.727 217.749 558.771 218.831 559.08 219.852C560.366 219.046 562.126 219.795 563.091 220.966C564.057 222.136 564.513 223.638 565.271 224.953C566.295 226.727 567.924 228.3 568.067 230.345C568.029 231.118 568.042 231.892 568.106 232.663C568.36 233.902 569.405 234.791 570.13 235.827C571.817 238.236 571.734 241.545 570.646 244.278C569.559 247.012 567.606 249.296 565.671 251.51C562.292 255.378 558.844 259.223 554.837 262.434C553.694 263.351 552.474 264.252 551.762 265.533C551.05 266.815 551.014 268.613 552.108 269.588C551.325 269.627 549.921 270.013 549.138 270.052C548.863 266.908 548.803 263.748 548.959 260.595C545.87 259.11 542.543 263.088 542.942 266.496C543.341 269.904 545.803 272.639 547.555 275.587C548.837 277.744 549.79 280.258 549.362 282.73C548.934 285.203 546.73 287.483 544.233 287.265C540.262 286.919 538.601 281.21 534.668 280.557C534.321 280.476 533.957 280.512 533.633 280.66C533.05 280.981 532.948 281.763 532.915 282.429C532.754 285.697 532.615 289.095 533.889 292.109C535.753 296.517 540.569 300.219 539.559 304.898C534.117 302.366 531.288 296.255 530.003 290.386C528.718 284.516 528.504 278.355 526.201 272.806C524.453 275.05 520.777 273.195 519.18 270.841C517.665 268.609 516.733 266.027 515.263 263.765C513.793 261.503 511.542 259.478 508.85 259.353C506.027 259.223 503.58 261.162 501.427 262.995C499.656 264.502 497.839 266.068 496.804 268.151C495.298 271.182 495.692 274.755 495.62 278.14C495.541 281.799 494.767 285.659 492.276 288.338C489.785 291.017 485.188 291.95 482.441 289.536C481.007 288.275 480.312 286.392 479.694 284.585C476.712 275.871 474.229 266.995 472.256 257.999C471.795 260.053 469.994 262.699 468.274 261.49C467.888 261.164 467.575 260.761 467.356 260.306C464.147 254.861 458.205 251.594 452.201 249.636C446.197 247.678 439.88 246.764 433.943 244.612C430.615 243.405 427.437 241.82 424.471 239.888C423.715 241 423.274 242.297 423.193 243.64C423.113 244.983 423.398 246.323 424.016 247.517C425.333 249.852 428.313 251.203 430.865 250.387C432.183 249.965 433.296 249.049 434.604 248.596C435.913 248.144 437.668 248.366 438.24 249.628C438.788 250.836 437.96 252.297 438.371 253.558C438.996 255.479 441.889 255.627 442.901 257.375C443.654 258.675 443.035 260.402 441.96 261.452C440.885 262.501 439.451 263.077 438.139 263.807C433.882 266.177 430.855 270.224 427.134 273.372C423.414 276.52 418.165 278.818 413.731 276.799C414.788 271.44 408.412 267.506 407.24 262.172C406.854 260.416 407.054 258.551 406.503 256.84C405.705 254.363 403.51 252.659 401.709 250.782C399.525 248.48 397.823 245.764 396.705 242.793C395.586 239.822 395.073 236.657 395.196 233.485C395.293 231.28 395.698 229.039 395.196 226.891C394.695 224.742 392.918 222.662 390.716 222.759C385.687 222.982 379.352 223.356 376.713 219.064C375.771 217.532 375.362 215.288 376.723 214.114C377.684 213.286 379.101 213.364 380.363 213.489L391.694 214.605C394.344 214.866 397.208 215.081 399.483 213.694C401.757 212.307 402.742 208.625 400.636 206.993C399.098 205.8 396.341 205.865 395.894 203.969C395.521 202.39 397.267 200.598 396.324 199.278C395.648 198.332 394.128 198.595 393.207 199.304C392.287 200.013 391.618 201.051 390.588 201.588C388.78 202.53 386.619 201.633 384.674 201.024C382.729 200.414 380.121 200.363 379.177 202.172C378.122 204.195 380.113 206.846 379.066 208.873C377.682 211.553 372.993 210.028 371.048 212.333C368.817 214.979 372.567 218.923 371.814 222.303C370.853 222.779 369.786 222.998 368.715 222.938C367.645 222.878 366.609 222.541 365.707 221.96C364.821 221.356 364.114 220.523 363.663 219.549C363.212 218.575 363.032 217.497 363.144 216.43C363.33 214.909 364.122 213.357 363.591 211.921C363.163 210.759 361.998 210.067 360.915 209.468L349.904 203.376C348.882 205.275 350.174 207.629 351.79 209.055C353.407 210.481 355.431 211.556 356.493 213.433C357.165 214.733 357.315 216.241 356.914 217.649C356.513 219.057 355.59 220.258 354.334 221.008C354.177 221.116 353.997 221.19 353.809 221.223C353.621 221.255 353.427 221.247 353.242 221.198C353.067 221.095 352.914 220.957 352.792 220.793C352.67 220.63 352.583 220.443 352.535 220.245C350.592 215.267 347.675 210.359 343.011 207.758C338.348 205.158 331.647 205.693 328.589 210.073C327.863 211.114 327.375 212.3 326.742 213.4C323.381 219.244 316.174 222.012 309.44 221.831C308.781 221.867 308.126 221.713 307.553 221.387C306.464 220.634 306.513 219.037 306.68 217.724L307.387 212.149C307.529 211.029 307.734 209.792 308.619 209.093C309.867 208.108 311.666 208.73 313.255 208.707C314.458 208.65 315.615 208.225 316.569 207.488C317.523 206.751 318.227 205.738 318.587 204.586C318.908 203.424 318.906 202.195 318.581 201.034C318.256 199.872 317.621 198.821 316.744 197.994C316.016 197.31 315.038 196.449 315.423 195.526C315.576 195.271 315.784 195.052 316.031 194.886C316.278 194.72 316.558 194.609 316.852 194.563C319.705 193.733 322.72 193.516 325.526 192.537C328.332 191.558 331.053 189.555 331.718 186.655C331.921 185.767 332.014 184.69 332.811 184.249C333.211 184.08 333.641 183.992 334.075 183.991C335.596 183.774 336.982 182.995 337.958 181.807C338.934 180.619 339.431 179.108 339.35 177.572C340.695 176.631 342.579 177.323 343.88 178.324C345.181 179.324 346.329 180.647 347.912 181.078C350.862 181.882 353.713 179.267 356.77 179.254C358.056 179.249 359.387 179.705 360.596 179.268C361.822 178.826 362.555 177.604 363.496 176.701C364.437 175.798 366.088 175.247 366.957 176.22L366.217 170.732C367.707 171.109 369.261 171.162 370.773 170.888C372.286 170.614 373.722 170.02 374.986 169.144L365.423 165.909C365.09 165.826 364.783 165.661 364.528 165.43C363.833 164.68 364.524 163.512 365.089 162.66C366.442 160.622 366.669 157.264 364.445 156.249C362.926 155.556 361.184 156.388 359.727 157.201L352.746 161.098C352.525 162.426 354.147 163.179 355.153 164.074C355.761 164.616 356.191 165.329 356.388 166.119C356.584 166.91 356.536 167.742 356.252 168.506C355.967 169.269 355.459 169.929 354.793 170.397C354.127 170.866 353.336 171.122 352.522 171.132C352.981 171.731 353.301 172.425 353.456 173.164C353.612 173.902 353.599 174.666 353.419 175.4L348.723 175.738C348.196 175.844 347.648 175.737 347.2 175.44C346.697 174.993 346.766 174.211 346.649 173.548C346.368 171.949 344.805 170.829 343.209 170.541C341.613 170.254 339.98 170.622 338.4 170.986C337.729 171.228 336.992 171.211 336.333 170.938C335.955 170.692 335.668 170.329 335.515 169.905C334.822 168.223 335.47 166.246 336.583 164.807C337.695 163.369 339.219 162.318 340.587 161.12C343.858 158.246 346.262 154.513 347.526 150.344C350.111 149.259 352.788 147.785 355.373 146.701C359.359 144.68 363.829 143.813 368.28 144.197L377.036 144.364C379.628 144.414 382.291 144.477 384.688 145.467C387.085 146.456 389.191 148.597 389.356 151.187C389.406 151.481 389.381 151.782 389.283 152.063C389.184 152.343 389.017 152.595 388.795 152.793C388.456 152.978 388.073 153.064 387.688 153.042C385.27 153.128 384.239 153.731 381.822 153.816Z" fill="#3F3D56"/>
<path d="M312.034 181.291C312.376 180.967 312.622 180.554 312.745 180.099C312.869 179.644 312.864 179.164 312.733 178.711C311.9 178.389 310.995 178.307 310.118 178.472C309.241 178.638 308.428 179.046 307.77 179.649C307.252 180.174 306.805 180.766 306.441 181.409C305.29 183.288 304.273 185.533 304.939 187.634C304.994 187.863 305.093 188.079 305.232 188.269C305.371 188.459 305.546 188.62 305.748 188.741C306.047 188.861 306.369 188.912 306.69 188.889C307.957 188.887 309.224 188.809 310.482 188.655C311.254 188.56 312.152 188.342 312.45 187.622C312.843 186.676 311.893 185.606 312.17 184.619C312.352 184.178 312.628 183.782 312.979 183.459C313.153 183.297 313.287 183.095 313.369 182.872C313.452 182.648 313.482 182.409 313.456 182.172C313.344 181.709 312.637 181.446 312.382 181.848" fill="#3F3D56"/>
<path d="M318.606 172.759C317.48 172.5 316.32 172.427 315.17 172.543C314.916 172.536 314.664 172.593 314.438 172.71C314.219 172.871 314.06 173.102 313.987 173.364C313.744 174.144 313.804 174.987 314.154 175.725C314.504 176.463 315.119 177.042 315.877 177.347C316.29 177.442 316.685 177.601 317.049 177.818C318.02 178.573 317.401 180.116 317.585 181.334C317.792 182.701 319.113 183.849 318.871 185.211C318.68 186.283 317.536 187.133 317.72 188.206C317.913 189.331 319.338 189.669 320.475 189.759C321.133 189.874 321.811 189.797 322.426 189.535C323.043 189.113 323.481 188.477 323.657 187.75C324.122 186.364 324.318 184.901 324.233 183.441C324.228 182.777 324.061 182.124 323.748 181.539C323.406 181.076 323.026 180.641 322.614 180.239C320.437 177.704 322.729 173.922 318.606 172.759Z" fill="#3F3D56"/>
<path opacity="0.8" d="M604.842 371.356C604.842 371.356 438.126 275.537 366.353 293.692C366.353 293.692 214.244 310.082 196.615 346.14C196.615 346.14 148.263 194.848 130.634 189.805" stroke="#6C63FF" stroke-width="2" stroke-miterlimit="10"/>
<path opacity="0.8" d="M196.615 346.14C224.569 271.503 476.405 188.796 476.405 188.796C440.644 197.874 366.353 293.692 366.353 293.692C366.353 293.692 209.207 179.214 130.634 189.805C130.634 189.805 476.657 201.152 604.842 371.356" stroke="#6C63FF" stroke-width="2" stroke-miterlimit="10"/>
<path d="M130.634 197.117C134.667 197.117 137.937 193.843 137.937 189.805C137.937 185.766 134.667 182.492 130.634 182.492C126.601 182.492 123.331 185.766 123.331 189.805C123.331 193.843 126.601 197.117 130.634 197.117Z" fill="#43F721"/>
<path d="M196.615 353.453C200.649 353.453 203.918 350.179 203.918 346.14C203.918 342.102 200.649 338.828 196.615 338.828C192.582 338.828 189.312 342.102 189.312 346.14C189.312 350.179 192.582 353.453 196.615 353.453Z" fill="#43F721"/>
<path d="M476.405 196.109C480.439 196.109 483.708 192.835 483.708 188.796C483.708 184.758 480.439 181.484 476.405 181.484C472.372 181.484 469.102 184.758 469.102 188.796C469.102 192.835 472.372 196.109 476.405 196.109Z" fill="#43F721"/>
<path d="M604.842 378.668C608.875 378.668 612.145 375.394 612.145 371.355C612.145 367.317 608.875 364.043 604.842 364.043C600.808 364.043 597.538 367.317 597.538 371.355C597.538 375.394 600.808 378.668 604.842 378.668Z" fill="#43F721"/>
<path d="M366.353 301.005C370.386 301.005 373.656 297.731 373.656 293.692C373.656 289.654 370.386 286.38 366.353 286.38C362.319 286.38 359.05 289.654 359.05 293.692C359.05 297.731 362.319 301.005 366.353 301.005Z" fill="#43F721"/>
</g>
<defs>
<clipPath id="clip0_8_4">
<rect width="718" height="534" fill="white"/>
</clipPath>
</defs>
</svg>
